<svg width="203" height="32" viewBox="0 0 203 32" fill="none" xmlns="http://www.w3.org/2000/svg">
<path d="M195.458 10.7863C196.207 10.8637 196.956 11.0445 197.705 11.3286C198.479 11.5868 199.177 11.9484 199.796 12.4132C200.416 12.8781 200.92 13.4462 201.307 14.1177C201.695 14.7633 201.888 15.5123 201.888 16.3645C201.811 17.5008 201.475 18.3659 200.881 18.9599C200.313 19.5539 199.616 20.0187 198.789 20.3545C197.989 20.6644 197.136 20.9097 196.233 21.0905C195.355 21.2454 194.58 21.452 193.908 21.7103C192.746 22.1493 191.971 22.7175 191.584 23.4147C191.326 23.9054 191.326 24.4219 191.584 24.9643C191.868 25.5066 192.294 26.0102 192.862 26.475C193.456 26.9399 194.154 27.3273 194.954 27.6372C195.755 27.9212 196.581 28.0633 197.433 28.0633C198.182 28.0633 198.905 27.9341 199.603 27.6759C200.3 27.3918 200.907 26.9141 201.423 26.2426C201.553 26.036 201.72 25.9327 201.927 25.9327C202.056 25.9327 202.172 25.9843 202.276 26.0876C202.405 26.1909 202.469 26.3201 202.469 26.475C202.444 26.6042 202.392 26.7204 202.314 26.8237C202.263 26.9011 202.211 26.9915 202.159 27.0948C201.126 28.5669 199.926 29.6257 198.557 30.2713C197.214 30.9169 195.845 31.2398 194.451 31.2398C192.72 31.2139 191.222 30.8911 189.957 30.2713C188.717 29.6257 187.697 28.7993 186.897 27.7921C186.096 26.7849 185.515 25.6486 185.154 24.3832C184.818 23.0919 184.676 21.7878 184.727 20.4707C184.805 19.1536 185.089 17.8882 185.58 16.6744C186.096 15.4348 186.793 14.3501 187.672 13.4204C188.575 12.4907 189.673 11.7805 190.964 11.2898C192.281 10.7992 193.779 10.6313 195.458 10.7863ZM190.422 22.1364C190.525 22.6013 190.719 22.6529 191.003 22.2914C191.339 21.8265 191.752 21.4262 192.243 21.0905C192.759 20.7548 193.276 20.4319 193.792 20.122C194.334 19.7863 194.864 19.4506 195.38 19.1149C195.923 18.7791 196.388 18.3918 196.775 17.9527C197.162 17.5137 197.459 16.9972 197.666 16.4032C197.872 15.7834 197.937 15.0474 197.86 14.1952C197.705 13.3946 197.356 12.8135 196.814 12.452C196.297 12.0646 195.703 11.8709 195.032 11.8709C194.593 11.8709 194.141 11.9484 193.676 12.1033C192.746 12.4391 192.023 12.9943 191.507 13.7691C190.99 14.5438 190.616 15.4219 190.383 16.4032C190.151 17.3588 190.047 18.353 190.073 19.386C190.125 20.3932 190.241 21.31 190.422 22.1364Z" fill="white"/>
<path d="M163.198 11.0188H171.914C172.043 11.0188 172.108 11.0834 172.108 11.2125C172.134 11.3416 172.082 11.4062 171.953 11.4062C171.721 11.4062 171.54 11.4449 171.411 11.5224C171.282 11.6257 171.191 11.7806 171.14 11.9872C171.114 12.168 171.178 12.4521 171.333 12.8395L175.556 23.2212C175.659 23.5053 175.788 23.4665 175.943 23.105L180.165 12.8395C180.32 12.4521 180.372 12.168 180.32 11.9872C180.295 11.7806 180.217 11.6257 180.088 11.5224C179.933 11.4449 179.739 11.4062 179.507 11.4062C179.404 11.4062 179.352 11.3416 179.352 11.2125C179.352 11.0834 179.429 11.0188 179.584 11.0188H183.419C183.523 11.0188 183.574 11.0834 183.574 11.2125C183.574 11.3416 183.51 11.4062 183.381 11.4062C183.277 11.4062 183.135 11.4191 182.955 11.4449C182.8 11.4707 182.593 11.5999 182.335 11.8323C182.102 12.0389 181.831 12.3746 181.521 12.8395C181.237 13.2785 180.914 13.9241 180.553 14.7764L174.122 30.5039C174.071 30.6072 173.98 30.7234 173.851 30.8525C173.722 30.9558 173.541 31.0075 173.309 31.0075C172.922 31.0075 172.663 30.8267 172.534 30.4651L166.065 14.7764C165.729 13.9241 165.406 13.2785 165.096 12.8395C164.787 12.3746 164.503 12.0389 164.244 11.8323C164.012 11.5999 163.805 11.4707 163.624 11.4449C163.47 11.4191 163.34 11.4062 163.237 11.4062C163.108 11.4062 163.043 11.3416 163.043 11.2125C163.043 11.0834 163.095 11.0188 163.198 11.0188Z" fill="white"/>
<path d="M149.438 13.924L156.837 10.9025C157.018 10.8508 157.108 10.9154 157.108 11.0962L157.147 27.2498C157.147 28.5152 157.65 29.5353 158.658 30.3101L159.084 30.62C159.161 30.6716 159.187 30.7491 159.161 30.8524C159.135 30.9557 159.071 31.0074 158.967 31.0074H149.787C149.657 31.0074 149.58 30.9557 149.554 30.8524C149.528 30.7491 149.554 30.6716 149.632 30.62L150.058 30.3488C150.548 29.9873 150.923 29.5353 151.181 28.993C151.465 28.4248 151.607 27.8438 151.607 27.2498L151.569 17.7203C151.569 16.9714 151.375 16.287 150.987 15.6672C150.6 15.0474 150.071 14.5826 149.399 14.2727C149.348 14.221 149.322 14.1565 149.322 14.079C149.348 14.0015 149.386 13.9499 149.438 13.924ZM150.91 6.02154C150.91 5.22096 151.194 4.53659 151.762 3.96844C152.33 3.40029 153.015 3.11621 153.815 3.11621C154.642 3.11621 155.339 3.40029 155.907 3.96844C156.475 4.53659 156.759 5.22096 156.759 6.02154C156.759 6.84794 156.475 7.54522 155.907 8.11338C155.339 8.68153 154.655 8.96561 153.854 8.96561C153.028 8.96561 152.33 8.68153 151.762 8.11338C151.194 7.54522 150.91 6.84794 150.91 6.02154Z" fill="white"/>
<path d="M134.942 3.03876L142.341 0.0172172C142.521 -0.0344339 142.612 0.0301289 142.612 0.210906V27.2498C142.612 27.8438 142.741 28.412 142.999 28.9543C143.283 29.4966 143.671 29.9486 144.161 30.3101L144.587 30.62C144.665 30.6717 144.691 30.7491 144.665 30.8524C144.639 30.9557 144.562 31.0074 144.432 31.0074H135.29C135.161 31.0074 135.084 30.9557 135.058 30.8524C135.032 30.7491 135.058 30.6717 135.135 30.62L135.561 30.3489C136.052 29.9873 136.427 29.5354 136.685 28.993C136.943 28.4249 137.072 27.8438 137.072 27.2498V6.83506C137.072 6.08612 136.879 5.40176 136.491 4.78196C136.104 4.16215 135.574 3.6973 134.903 3.3874C134.851 3.33575 134.825 3.27118 134.825 3.19371C134.851 3.11623 134.89 3.06458 134.942 3.03876Z" fill="white"/>
<path d="M108.983 3.03876L116.382 0.0172172C116.563 -0.0344339 116.653 0.0301289 116.653 0.210906V19.696C116.653 19.9026 116.717 20.0704 116.847 20.1996C116.976 20.3029 117.131 20.3545 117.311 20.3545C117.441 20.3545 117.596 20.29 117.776 20.1608L125.408 12.8007C125.692 12.5166 125.847 12.2842 125.872 12.1034C125.924 11.8968 125.898 11.7289 125.795 11.5998C125.718 11.4707 125.563 11.3674 125.33 11.2899C125.253 11.2124 125.227 11.1349 125.253 11.0575C125.279 10.9542 125.343 10.9025 125.446 10.9025H129.746C129.85 10.9025 129.914 10.9542 129.94 11.0575C129.966 11.1349 129.94 11.2124 129.862 11.2899C129.578 11.3157 129.281 11.3932 128.972 11.5223C128.687 11.6256 128.365 11.7806 128.003 11.9872C127.667 12.1679 127.319 12.4391 126.957 12.8007L121.495 18.1077C121.237 18.366 121.211 18.6501 121.418 18.96L128.662 29.1867C128.946 29.5483 129.217 29.8323 129.475 30.0389C129.759 30.2197 130.005 30.3618 130.211 30.4651C130.444 30.5684 130.663 30.62 130.87 30.62C130.947 30.6717 130.96 30.7491 130.908 30.8524C130.883 30.9557 130.818 31.0074 130.715 31.0074H122.425C122.322 31.0074 122.257 30.9557 122.231 30.8524C122.205 30.7491 122.231 30.6717 122.309 30.62C122.619 30.5684 122.864 30.478 123.045 30.3489C123.174 30.2197 123.264 30.0648 123.316 29.884C123.367 29.6774 123.277 29.4062 123.045 29.0705L118.202 22.2527C118.073 22.0977 117.905 22.0202 117.699 22.0202C117.518 21.9944 117.363 22.0461 117.234 22.1752L116.885 22.4851C116.73 22.64 116.653 22.8079 116.653 22.9887V27.2498C116.653 27.8438 116.782 28.412 117.04 28.9543C117.324 29.4966 117.712 29.9486 118.202 30.3101L118.629 30.62C118.706 30.6717 118.732 30.7491 118.706 30.8524C118.68 30.9557 118.603 31.0074 118.474 31.0074H109.331C109.202 31.0074 109.125 30.9557 109.099 30.8524C109.073 30.7491 109.099 30.6717 109.177 30.62L109.603 30.3489C110.093 29.9873 110.468 29.5354 110.726 28.993C110.984 28.4249 111.113 27.8438 111.113 27.2498V6.83506C111.113 6.08612 110.92 5.40176 110.532 4.78196C110.145 4.16215 109.616 3.6973 108.944 3.3874C108.892 3.33575 108.867 3.27118 108.867 3.19371C108.892 3.11623 108.931 3.06458 108.983 3.03876Z" fill="white"/>
<path d="M96.8857 10.7477C97.7896 10.7477 98.6677 10.9026 99.5199 11.2125C100.398 11.4966 101.186 11.9356 101.883 12.5296C102.58 13.0978 103.148 13.795 103.587 14.6215C104.026 15.422 104.259 16.3388 104.285 17.3718C104.285 17.501 104.246 17.5268 104.168 17.4493L99.5199 15.8611C99.4941 15.8352 99.4812 15.7965 99.4812 15.7448C99.6619 15.3575 99.7652 14.9443 99.7911 14.5052C99.8169 14.0404 99.7394 13.6272 99.5586 13.2656C99.4037 12.8783 99.1325 12.5554 98.7451 12.2972C98.3836 12.0389 97.88 11.9098 97.2344 11.9098C96.253 11.9098 95.4008 12.323 94.6777 13.1494C93.9804 13.95 93.451 14.9572 93.0894 16.171C92.7279 17.3847 92.56 18.7018 92.5858 20.1222C92.6117 21.5168 92.857 22.8209 93.3219 24.0347C93.8125 25.2485 94.5486 26.2557 95.5299 27.0563C96.5113 27.8568 97.7767 28.2571 99.3262 28.2571C100.282 28.2571 101.186 28.0893 102.038 27.7535C102.89 27.4178 103.549 26.9659 104.013 26.3977C104.168 26.2169 104.323 26.1266 104.478 26.1266C104.685 26.1266 104.84 26.2169 104.943 26.3977C105.046 26.5785 105.008 26.798 104.827 27.0563C103.768 28.5283 102.567 29.5871 101.224 30.2328C99.8814 30.8784 98.5127 31.2012 97.1181 31.2012C95.8785 31.2012 94.6648 30.9688 93.4768 30.5039C92.3147 30.0132 91.2817 29.3418 90.3778 28.4896C89.4739 27.6373 88.7379 26.6172 88.1697 25.4293C87.6016 24.2413 87.2917 22.9371 87.24 21.5168C87.2142 20.1222 87.4208 18.7793 87.8598 17.488C88.2989 16.1968 88.9316 15.0605 89.758 14.0791C90.6102 13.0978 91.6432 12.3101 92.857 11.7161C94.0708 11.0963 95.4137 10.7735 96.8857 10.7477Z" fill="white"/>
<path d="M65.6317 21.0132C65.6317 19.5928 65.8771 18.2628 66.3677 17.0232C66.8584 15.7578 67.517 14.6602 68.3434 13.7305C69.1698 12.8008 70.1511 12.0777 71.2874 11.5612C72.4237 11.0188 73.6246 10.7477 74.89 10.7477C76.1813 10.7477 77.3822 11.0188 78.4926 11.5612C79.6289 12.0777 80.6103 12.8008 81.4367 13.7305C82.2631 14.6602 82.9216 15.7578 83.4123 17.0232C83.903 18.2628 84.1483 19.5928 84.1483 21.0132C84.1483 22.4336 83.903 23.7636 83.4123 25.0032C82.9216 26.2428 82.2631 27.3274 81.4367 28.2571C80.6103 29.1868 79.6289 29.9228 78.4926 30.4652C77.3822 31.0075 76.1813 31.2787 74.89 31.2787C73.6246 31.2787 72.4237 31.0075 71.2874 30.4652C70.1511 29.9228 69.1698 29.1868 68.3434 28.2571C67.517 27.3274 66.8584 26.2428 66.3677 25.0032C65.8771 23.7636 65.6317 22.4336 65.6317 21.0132ZM71.1712 21.0132C71.1712 22.2786 71.2358 23.4666 71.3649 24.577C71.494 25.6875 71.7006 26.6689 71.9847 27.5211C72.2946 28.3475 72.682 29.0061 73.1468 29.4967C73.6375 29.9616 74.2186 30.194 74.89 30.194C75.5615 30.194 76.1296 29.9616 76.5945 29.4967C77.0852 29.0061 77.4725 28.3475 77.7566 27.5211C78.0665 26.6689 78.286 25.6875 78.4152 24.577C78.5443 23.4666 78.6088 22.2786 78.6088 21.0132C78.6088 19.7477 78.5443 18.5598 78.4152 17.4493C78.286 16.3388 78.0665 15.3704 77.7566 14.544C77.4725 13.6917 77.0852 13.0332 76.5945 12.5684C76.1296 12.0777 75.5615 11.8323 74.89 11.8323C74.2186 11.8323 73.6375 12.0777 73.1468 12.5684C72.682 13.0332 72.2946 13.6788 71.9847 14.5052C71.7006 15.3316 71.494 16.313 71.3649 17.4493C71.2358 18.5598 71.1712 19.7477 71.1712 21.0132Z" fill="white"/>
<path d="M52.4045 3.03876L59.8034 0.0172172C59.9842 -0.0344339 60.0746 0.0301289 60.0746 0.210906V27.2498C60.0746 27.8438 60.2037 28.412 60.462 28.9543C60.7461 29.4966 61.1334 29.9486 61.6241 30.3101L62.0502 30.62C62.1277 30.6717 62.1535 30.7491 62.1277 30.8524C62.1019 30.9557 62.0244 31.0074 61.8953 31.0074H52.7532C52.6241 31.0074 52.5466 30.9557 52.5208 30.8524C52.4949 30.7491 52.5208 30.6717 52.5982 30.62L53.0243 30.3489C53.515 29.9873 53.8895 29.5354 54.1477 28.993C54.406 28.4249 54.5351 27.8438 54.5351 27.2498V6.83506C54.5351 6.08612 54.3414 5.40176 53.9541 4.78196C53.5667 4.16215 53.0373 3.6973 52.3658 3.3874C52.3142 3.33575 52.2883 3.27118 52.2883 3.19371C52.3142 3.11623 52.3529 3.06458 52.4045 3.03876Z" fill="white"/>
<path d="M27.0389 16.7907C27.0389 16.7133 27.0002 16.5712 26.9227 16.3646C26.8452 16.158 26.7161 15.9256 26.5353 15.6673C26.3804 15.4091 26.1738 15.1637 25.9155 14.9313C25.6573 14.6731 25.3474 14.4535 24.9858 14.2728C24.9342 14.2211 24.9083 14.1566 24.9083 14.0791C24.9342 14.0016 24.9729 13.95 25.0246 13.9241L32.4235 10.9026C32.6042 10.8509 32.6946 10.9155 32.6946 11.0963C32.6946 11.3804 32.6946 11.6773 32.6946 11.9872C32.7205 12.2971 32.7334 12.5941 32.7334 12.8782C32.2169 13.1623 31.6229 13.5238 30.9514 13.9629C30.3058 14.3761 29.5569 14.8926 28.7046 15.5124C28.4464 15.6932 28.1752 15.8998 27.8912 16.1322C27.6071 16.3646 27.323 16.5841 27.0389 16.7907ZM34.6703 30.6201C34.7477 30.6717 34.7736 30.7492 34.7477 30.8525C34.7219 30.9558 34.6444 31.0075 34.5153 31.0075H25.3732C25.2441 31.0075 25.1666 30.9558 25.1408 30.8525C25.115 30.7492 25.1408 30.6717 25.2183 30.6201L25.6444 30.3489C26.6515 29.5742 27.1551 28.5412 27.1551 27.2499V19.7348C27.6716 19.3216 28.1752 18.9342 28.6659 18.5727C29.1824 18.1853 29.6731 17.8237 30.1379 17.488C30.7319 17.049 31.2484 16.7003 31.6875 16.4421C32.1265 16.158 32.5268 15.9127 32.8883 15.7061C32.7592 16.0418 32.6946 16.3775 32.6946 16.7133C32.6946 18.4952 32.6946 20.2513 32.6946 21.9816C32.7205 23.7119 32.7205 25.468 32.6946 27.2499C32.6946 27.8439 32.8238 28.412 33.082 28.9544C33.3661 29.4967 33.7535 29.9486 34.2441 30.3102L34.6703 30.6201ZM15.1464 17.7204C15.1464 16.9715 14.9528 16.2871 14.5654 15.6673C14.178 15.0475 13.6486 14.5827 12.9771 14.2728C12.9255 14.2211 12.8997 14.1566 12.8997 14.0791C12.9255 14.0016 12.9642 13.95 13.0159 13.9241L20.4148 10.9026C20.5956 10.8509 20.6859 10.9155 20.6859 11.0963V21.7492C19.6271 22.5756 18.5941 23.3891 17.5869 24.1896C16.6056 24.9902 15.7017 25.6875 14.8753 26.2815C15.0044 25.9457 15.0948 25.5196 15.1464 25.0031C15.1981 24.6157 15.1981 24.2413 15.1464 23.8797V17.7204ZM20.7634 24.8482C20.8667 25.4421 21.0991 25.9845 21.4607 26.4752C21.8481 26.9658 22.3258 27.3532 22.894 27.6373C22.9456 27.6889 22.9586 27.7535 22.9327 27.831C22.9327 27.9084 22.894 27.9601 22.8165 27.9859L15.4563 31.0075C15.2497 31.0591 15.1464 30.9946 15.1464 30.8138V29.4967V29.2643C15.8179 28.7736 16.5797 28.1796 17.432 27.4823C18.31 26.7851 19.2785 26.0103 20.3373 25.1581C20.4148 25.1064 20.4793 25.0548 20.531 25.0031C20.6085 24.9515 20.6859 24.8998 20.7634 24.8482ZM45.633 27.2499C45.633 28.5153 46.1366 29.5354 47.1438 30.3102L47.5699 30.6201C47.6474 30.6717 47.6732 30.7492 47.6474 30.8525C47.6216 30.9558 47.557 31.0075 47.4537 31.0075H38.2729C38.1696 31.0075 38.105 30.9558 38.0792 30.8525C38.0533 30.7492 38.0792 30.6717 38.1567 30.6201L38.544 30.3489C39.0347 29.9874 39.4092 29.5354 39.6674 28.9931C39.9515 28.4508 40.0935 27.8697 40.0935 27.2499V16.6745C40.0935 15.4866 39.8353 14.6731 39.3188 14.234C38.8023 13.7692 38.1308 13.5626 37.3044 13.6142C36.5038 13.6401 35.6 13.8596 34.5928 14.2728C33.6114 14.686 32.643 15.1767 31.6875 15.7448C30.7319 16.2871 29.841 16.8424 29.0145 17.4105C28.214 17.9787 27.5942 18.4306 27.1551 18.7664C26.0705 19.5928 24.9858 20.445 23.9012 21.323C22.8423 22.1753 21.7706 23.0275 20.6859 23.8797C20.1178 24.3446 19.498 24.874 18.8265 25.468C18.1551 26.0361 17.4578 26.6043 16.7347 27.1724C16.0116 27.7406 15.2885 28.2829 14.5654 28.7994C13.8681 29.2901 13.1837 29.7033 12.5123 30.039C11.4276 30.5814 10.2784 30.9429 9.06463 31.1237C7.87667 31.3045 6.7791 31.2141 5.77192 30.8525C4.76474 30.491 3.92542 29.8195 3.25397 28.8382C2.60834 27.831 2.28553 26.4106 2.28553 24.577L2.24679 17.7204C2.24679 16.9715 2.0531 16.2871 1.66572 15.6673C1.27834 15.0475 0.748929 14.5827 0.0774754 14.2728C0.0258251 14.2211 0 14.1566 0 14.0791C0.0258252 14.0016 0.0645629 13.95 0.116213 13.9241L7.51512 10.9026C7.69589 10.8509 7.78628 10.9155 7.78628 11.0963L7.82502 24.577C7.82502 25.3001 7.95414 25.9328 8.2124 26.4752C8.49647 27.0175 8.8322 27.4565 9.21958 27.7922C9.63278 28.128 10.0847 28.3733 10.5754 28.5283C11.0919 28.6574 11.5955 28.6832 12.0862 28.6057C12.5768 28.5283 13.2225 28.2442 14.0231 27.7535C14.8495 27.2628 15.6888 26.6947 16.541 26.049C17.3932 25.4034 18.1938 24.7707 18.9427 24.1509C19.7175 23.5311 20.2986 23.0662 20.6859 22.7563C21.7706 21.9041 22.8423 21.0519 23.9012 20.1996C24.9858 19.3216 26.0705 18.4694 27.1551 17.643C27.9815 17.0232 28.9242 16.3388 29.983 15.5899C31.0676 14.8151 32.1781 14.1049 33.3144 13.4593C34.4766 12.7878 35.6387 12.2326 36.8008 11.7936C37.963 11.3287 39.0218 11.0963 39.9773 11.0963C41.3719 11.0963 42.4824 11.4062 43.3088 12.026C44.1352 12.6458 44.7421 13.4722 45.1294 14.5052C45.4652 15.4349 45.633 16.5325 45.633 17.7979V27.2499Z" fill="white"/>
</svg>
