<svg width="236" height="227" viewBox="0 0 236 227" fill="none" xmlns="http://www.w3.org/2000/svg">
<path opacity="0.04" d="M169.53 226.958C185.786 226.794 201.975 225.874 218.098 223.871C234.849 221.801 251.369 218.746 267.591 214.082C282.79 209.713 297.525 204.161 310.972 195.719C317.283 191.744 323.065 187.146 327.889 181.397C328.285 180.937 328.616 180.444 328.979 179.952C338.296 167.732 338.461 154.724 329.442 142.373C328.913 141.65 328.318 140.927 327.79 140.205C327.261 139.515 327.294 138.825 327.889 138.201C328.913 137.084 329.97 136 330.994 134.883C336.545 128.839 341.336 122.236 344.706 114.714C346.952 109.721 348.439 104.531 348.869 99.0451C349.794 87.2523 345.829 77.4305 336.908 69.6125C331.589 64.948 325.345 61.8931 318.605 59.8236C314.541 58.5753 310.444 57.5242 306.182 57.1628C305.422 57.0971 304.695 56.9329 303.968 56.7358C303.142 56.5387 302.679 55.9474 302.713 55.0933C302.713 53.7465 302.679 52.3669 302.812 51.0201C303.505 44.4503 301.226 38.866 297.129 33.873C292.834 28.65 287.448 24.7739 281.6 21.489C273.109 16.6931 264.056 13.2439 254.739 10.4846C238.979 5.85295 222.856 3.1265 206.501 1.54975C188.792 -0.158387 171.05 -0.421178 153.308 0.597136C134.938 1.68115 116.766 4.17766 98.9906 9.00644C87.2616 12.1928 75.8629 16.266 65.3894 22.573C61.8872 24.7082 58.6163 27.139 55.5767 29.8983C53.33 31.9349 51.4467 34.3 49.8278 36.8951C47.3498 40.8369 46.1274 45.1401 46.4578 49.8047C46.5569 51.3157 46.623 52.8268 46.4908 54.3378C45.5987 64.0282 46.4908 73.6529 48.0767 83.1791C49.5305 91.9826 52.0084 100.523 55.2463 108.867C55.5767 109.721 55.9401 110.542 56.2375 111.396C56.5018 112.25 56.1384 112.874 55.3454 113.203C54.5194 113.564 53.6273 113.827 52.7683 114.123C44.5415 117.21 36.4468 120.692 28.8477 125.127C22.1406 129.036 15.8301 133.471 10.4777 139.121C7.76843 141.978 5.38959 145.132 3.57242 148.614C-1.18527 157.713 -1.21829 166.812 3.63852 175.911C6.3808 181.036 10.2134 185.306 14.5746 189.117C21.7112 195.358 29.8389 200.022 38.3961 203.997C51.3806 210.008 64.9599 214.213 78.8696 217.531C91.1272 220.454 103.55 222.59 116.039 224.101C133.715 226.236 151.59 227.221 169.53 226.958ZM105.532 208.136C104.938 208.005 105.764 207.545 105.268 207.906C105.169 207.972 105.037 208.103 105.07 208.202C105.169 208.53 105.367 208.53 105.632 208.267C105.268 208.169 105.235 208.235 105.499 208.432C105.532 208.3 105.532 208.235 105.532 208.136ZM74.244 204.95C73.8475 204.588 73.4511 204.26 73.0546 203.899C72.6912 203.537 72.3608 203.143 71.7661 203.274C71.8321 202.026 70.3454 201.008 71.2374 199.694C70.6097 199.891 69.9819 200.088 69.6515 199.234C69.5193 199.201 69.3872 199.201 69.2881 199.135C69.222 199.103 69.2551 198.971 69.2551 198.873C69.3542 199.037 69.4533 199.201 69.5524 199.365C70.1141 199.464 70.7088 199.595 71.2704 199.694C71.1053 200.285 71.2374 200.811 71.6009 201.303C72.0634 201.928 72.1295 202.585 71.7661 203.274C72.1956 203.471 72.8894 203.176 72.9555 203.964C73.352 204.26 73.7484 204.555 74.1449 204.818C74.211 204.884 74.244 204.95 74.3101 204.983C74.3101 204.917 74.3432 204.851 74.3432 204.785C74.3101 204.851 74.2771 204.917 74.244 204.95ZM67.9995 196.343L67.8013 196.442C67.8013 196.442 68.1317 196.475 68.0987 196.442C68.0656 196.409 68.0326 196.376 67.9995 196.343ZM133.814 206.526C134.211 206.526 134.31 206.362 134.079 206.034C133.847 205.738 133.55 205.705 133.385 206.001C133.187 206.329 133.352 206.526 133.814 206.526C134.409 206.625 135.037 206.691 135.665 206.789C137.581 209.516 140.29 211.29 143.131 212.932C144.222 213.556 145.676 213.753 146.171 215.199C147.261 214.804 148.12 215.33 149.046 215.79C150.995 216.742 152.944 217.695 154.894 218.648C154.596 218.483 154.53 218.516 154.728 218.746C154.761 218.648 154.794 218.549 154.827 218.451C151.193 218.024 148.913 217.137 146.237 215.1C141.612 214.312 138.242 211.651 135.598 207.939C135.4 207.676 135.665 207.118 135.665 206.724C135.103 206.691 134.442 206.592 133.814 206.526ZM59.7727 177.882C59.7397 177.554 59.5414 177.652 59.6406 177.784C60.0701 178.211 59.3102 177.948 59.8718 177.685C58.1207 178.309 56.6339 179.853 54.5525 179.262C53.1978 181.299 51.1824 181.233 49.0348 180.839C50.9181 180.346 52.7683 179.853 54.6846 179.36C56.3036 178.638 57.8894 177.718 59.7727 177.882ZM19.8279 175.451C20.9843 175.484 22.1076 175.451 23.264 175.977C26.2045 177.357 29.2442 178.539 32.2508 179.755C32.8455 179.985 33.275 180.313 33.6054 180.806C33.9027 180.806 34.167 180.806 34.4644 180.773C34.8939 180.74 35.0591 180.871 34.8939 181.101C34.8609 181.167 34.6296 181.101 34.4974 181.069C34.2331 180.97 33.9688 180.871 33.7045 180.773C32.2508 180.444 30.83 180.116 29.3763 179.82C25.808 179.065 22.9336 176.93 19.7948 175.287C20.3565 175.55 19.4644 175.747 20.0261 175.517C20.3235 175.386 20.2904 175.221 19.9931 175.189C19.3654 175.09 20.3235 175.09 19.8279 175.451ZM112.801 176.798C110.984 178.178 108.969 177.39 107.085 177.16C105.169 176.93 103.021 176.93 101.138 174.696C105.532 175.221 109.332 175.221 112.834 176.864L112.603 177.094L112.801 176.798ZM76.7881 164.217C74.8718 162.312 73.0215 160.374 70.3453 159.356C67.7352 158.37 64.9599 159.06 62.1185 158.304C62.6472 158.042 62.8784 157.844 63.1427 157.779C63.5723 157.68 64.0348 157.615 64.4973 157.615C72.4599 157.45 79.6956 159.914 86.4687 163.823C88.7153 165.104 90.4995 167.009 91.821 169.276C92.2836 170.064 92.6801 170.885 92.614 171.805C92.581 172.199 92.3167 172.594 92.0523 172.922C91.8541 173.152 91.5567 173.021 91.3254 172.692C89.3761 170.13 87.0964 167.995 83.9246 167.009C83.5281 166.878 82.9995 166.418 83.2969 166.024C84.7506 163.823 82.1405 165.235 81.9753 164.546C82.0744 164.94 82.2726 165.367 81.8101 165.662C81.8101 165.662 81.5788 165.433 81.6118 165.4C81.744 165.137 81.9092 164.907 82.0744 164.677C81.6449 163.79 81.0832 164.217 80.8519 164.71C80.2572 165.925 79.4973 166.057 78.44 165.4C77.8453 165.006 77.2837 164.546 76.722 164.151L76.7881 164.217ZM163.517 201.402L163.616 201.303C163.021 202.946 162.724 203.11 161.601 202.88C157.57 202.059 155.224 199.267 153.242 196.113C153.572 195.522 154.035 195.588 154.464 195.653C159.618 196.836 164.706 198.183 169.332 200.909C173.164 203.143 175.378 205.804 176.733 209.778C175.114 208.596 173.825 207.446 172.305 206.625C170.72 205.771 169.001 205.147 167.25 204.687C165.367 204.194 164.277 203.044 163.517 201.402ZM110.588 191.777C110.554 192.73 110.059 193.387 109.134 193.223C108.671 193.157 108.638 192.336 108.803 191.777C108.11 191.646 107.845 191.12 107.581 190.562C105.169 185.437 101.436 181.66 96.3145 179.196C95.7528 178.933 95.2572 178.605 95.1581 177.915C95.7197 177.554 96.3144 177.619 96.9091 177.751C100.544 178.506 103.715 180.182 106.623 182.448C112.173 186.751 116.502 192.204 120.698 197.756C121.788 199.201 122.449 200.909 122.878 202.683C123.109 203.636 122.944 204.457 121.821 205.114C119.508 202.782 116.7 201.008 113.958 199.168C112.438 198.15 111.05 196.935 110.092 195.391C109.596 194.569 110.224 194.044 111.116 193.945L111.017 194.044C111.909 192.664 111.909 192.664 110.588 191.777ZM31.3587 161.786C30.9291 161.622 30.3014 161.556 30.1693 161.261C29.7067 160.242 29.3763 159.454 27.9556 160.078C27.394 160.308 26.601 160.111 25.8411 160.308C23.8587 160.867 21.8103 161.162 19.6627 161.589C19.894 160.242 20.6869 159.75 21.4468 159.257C24.4534 157.417 27.6913 156.202 31.2265 155.939C36.2155 155.545 41.2045 155.644 46.0943 156.859C49.6626 157.746 53.0326 158.994 55.9401 161.261C56.5018 161.688 57.2287 162.016 56.9974 162.969C55.7749 163.429 54.5855 162.936 53.4621 162.608C50.5216 161.786 49.6295 161.753 46.0282 162.706C45.2683 162.903 44.9379 162.41 44.6736 161.885C44.4754 161.524 44.2111 161.524 44.0459 161.918C43.6824 162.706 43.4181 163.462 42.7573 162.082C42.3608 161.261 41.7992 160.834 41.3366 162.082C41.2045 162.443 41.1714 162.969 40.6428 162.903C40.4776 162.87 40.3454 162.41 40.2794 162.148C40.0481 161.096 39.7507 160.669 39.0899 161.951C38.33 161.524 37.5701 161.064 36.9093 162.148C36.7441 161.918 36.612 161.688 36.4468 161.458C35.819 160.604 35.2904 160.702 34.8609 161.655C34.6957 162.049 34.8279 162.608 34.101 162.706C34.0349 162.312 34.0019 161.918 33.9358 161.524C33.9027 161.228 33.9358 160.899 33.8366 160.637C33.7375 160.407 33.4732 160.111 33.308 160.111C33.0767 160.111 32.7794 160.374 32.6802 160.571C32.3499 161.162 32.7794 162.706 31.2265 161.688L31.3587 161.786ZM65.9181 184.879C63.7044 183.696 64.3652 181.463 64.0678 179.623C63.7705 177.685 64.5634 176.108 65.9511 174.762C67.0744 173.71 67.9665 173.612 69.1229 174.565C69.4863 174.86 69.8167 175.156 70.1471 175.484C73.2859 178.769 75.4334 182.415 75.103 187.178C74.7726 192.237 77.4489 195.752 81.5788 198.347C82.603 199.004 83.7264 199.464 84.7837 200.055C86.5347 201.008 88.0546 202.223 89.1118 203.964C90.4334 206.165 91.788 208.366 93.0766 210.567C93.5061 211.29 93.0435 211.914 92.1514 212.176C91.0611 212.505 90.037 212.209 89.0457 211.914C86.5678 211.125 84.3211 209.877 82.2065 208.399C76.8541 204.555 72.559 199.727 68.8586 194.34C67.2066 191.942 66.3806 189.182 65.4555 186.489C65.2903 185.996 65.6868 185.339 65.8189 184.748L65.9181 184.879ZM94.0347 190.003C94.3321 190.595 95.7197 190.529 95.2241 191.613C94.8607 192.401 95.1911 192.599 95.7858 192.894C96.777 193.387 94.9929 194.438 95.8189 194.504C97.8012 194.701 96.9752 195.818 97.1735 196.869C97.3387 197.657 96.2484 199.135 97.9664 199.464C99.2219 202.552 99.1228 205.574 97.3387 208.432C96.9752 209.023 96.3805 209.187 95.8519 208.629C95.3233 208.103 94.8607 207.512 94.4642 206.855C92.0523 202.683 88.6162 199.628 84.222 197.592C83.8255 197.394 83.396 197.23 82.9995 197C79.5964 194.832 77.4158 191.974 77.9775 187.671C78.0436 187.08 78.0435 186.456 78.1096 185.865C78.407 182.842 77.4819 180.215 75.3674 178.014C74.0128 176.601 72.592 175.254 71.2374 173.842C71.0722 173.645 70.9731 173.316 70.9731 173.053C70.9731 172.396 71.5348 172.396 71.9312 172.396C76.8542 172.396 80.9841 174.532 84.7837 177.39C85.2132 177.718 85.5105 178.342 85.7418 178.868C86.2374 179.886 86.3365 181.266 88.1206 180.937C88.5832 180.839 88.6493 181.528 88.451 181.956C87.625 183.631 89.0127 183.598 89.9378 183.894C89.8387 183.565 89.6735 183.729 89.8056 183.828C90.3012 184.156 89.5083 184.058 90.0039 183.696C89.277 184.353 88.6823 184.978 90.136 185.437C90.6977 185.602 91.2263 185.766 91.788 185.963C91.788 185.602 91.7219 185.569 91.6228 185.832C91.7219 185.832 91.788 185.799 91.8871 185.799C92.2836 186.817 93.3409 187.507 93.407 188.657V188.525C94.1008 188.821 93.8695 189.544 94.1669 190.036L94.0347 190.003ZM17.7464 170.13C16.3257 169.21 15.6649 168.06 16.1274 166.319C16.5569 164.808 17.6473 164.217 19.0019 163.757C22.6032 162.509 26.1054 162.345 29.4754 164.447C30.0041 164.776 30.5327 165.006 31.0944 165.268C34.3322 166.812 37.7023 167.371 41.2375 166.352C42.6913 165.925 44.178 165.662 45.6648 165.367C48.6714 164.808 51.678 164.513 54.7177 165.006C56.9974 165.367 59.1449 166.024 60.9291 167.568C63.7374 169.966 63.341 173.546 60.07 175.189C56.9643 176.765 53.6273 177.849 50.2573 178.703C45.797 179.82 41.2045 180.05 36.7441 178.999C29.7728 177.39 23.231 174.63 17.6142 170.031L17.7464 170.13ZM54.2881 150.946C55.6097 151.767 56.8652 151.242 58.2198 150.848C63.4731 149.337 68.7264 147.924 73.9797 146.479C74.7066 146.282 75.4334 146.183 76.1934 146.117C76.4247 146.117 76.755 146.347 76.9202 146.577C77.1845 147.004 77.0524 147.464 76.5568 147.596C74.244 148.318 71.8652 148.844 69.5854 149.698C66.5789 150.848 62.9115 150.881 61.1934 154.395C61.0282 154.691 60.4335 154.822 60.004 154.987C59.145 155.315 58.2198 155.447 57.4269 155.906C55.9401 156.76 54.6516 156.498 53.1648 155.841C45.7639 152.523 37.9666 151.767 30.0041 152.72C26.0393 153.18 22.3719 154.625 19.068 156.925C16.6561 158.6 14.8389 160.768 13.6495 163.462C11.8653 167.601 12.4931 171.411 15.1693 174.959C16.7552 177.028 18.8367 178.539 21.0834 179.853C25.8741 182.645 31.1274 184.124 36.5789 184.781C43.4512 185.602 50.2243 185.306 56.7 182.58C57.493 182.251 58.2859 181.693 59.4754 182.185C59.9379 187.507 61.3256 192.697 64.0348 197.526C66.7771 202.42 70.6427 206.395 74.7726 210.304C73.352 210.961 72.3608 210.337 71.4026 210.074C64.8278 208.235 58.2859 206.264 51.9093 203.833C42.6913 200.318 33.7375 196.212 25.5107 190.726C19.7948 186.916 14.5746 182.58 10.5768 176.962C7.73541 172.955 5.81912 168.586 5.52176 163.593C5.15833 157.746 7.04156 152.622 10.3125 147.891C13.9468 142.603 18.7045 138.398 23.9248 134.686C33.6384 127.821 44.4093 122.992 55.5436 118.919C58.8476 117.703 58.8806 117.703 60.4005 120.725C60.7308 121.382 60.9291 122.105 61.2925 123.025C58.1868 124.109 55.1472 125.028 52.2397 126.211C49.2661 127.426 46.1934 128.478 43.8807 130.941C44.5414 131.5 44.971 131.237 45.3674 131.04C49.6956 128.806 54.2551 127.164 58.8806 125.751C59.7397 125.488 60.6317 125.226 61.5238 125.094C62.3828 124.93 62.9775 125.488 63.2749 126.244C63.6383 127.197 63.0106 127.591 62.2506 127.821C61.3916 128.083 60.4996 128.313 59.6406 128.576C55.2793 129.89 50.9842 131.401 46.9864 133.569C46.4578 133.865 45.5987 134.029 45.7309 135.277C47.6472 134.587 49.4313 133.865 51.2815 133.274C55.015 132.058 58.7485 130.81 62.548 129.693C64.3652 129.167 65.6537 129.66 65.5546 130.58C65.3564 132.058 64.0018 131.861 63.1097 132.091C56.6339 133.832 50.3895 136.099 44.3763 138.989C43.5172 139.383 42.3608 139.548 42.0965 140.796C42.7903 141.124 43.319 140.763 43.8476 140.533C46.5238 139.482 49.1339 138.267 51.8432 137.314C56.5678 135.672 61.3256 134.16 66.2485 133.241C66.678 133.175 67.1736 133.306 67.1736 133.832C67.1736 134.062 66.9423 134.456 66.744 134.522C65.4555 134.982 64.2 135.442 62.8784 135.803C58.0216 137.084 53.363 138.924 48.7705 140.862C47.1516 141.551 45.4005 142.11 44.2111 143.884C45.5327 144.278 46.4247 143.555 47.3168 143.161C53.5943 140.467 60.1361 138.529 66.6779 136.657C67.537 136.394 68.429 135.934 69.3211 136.394C69.6515 136.558 69.9159 137.051 70.048 137.445C70.1141 137.61 69.7837 138.037 69.5524 138.135C68.8586 138.398 68.0987 138.562 67.3718 138.759C61.9203 140.139 56.6009 141.913 51.5128 144.245C50.9511 144.508 50.0591 144.639 50.4555 145.822C51.5458 145.493 52.537 145.198 53.5282 144.836C58.8146 142.997 64.2 141.387 69.6515 140.106C70.081 140.008 70.5436 139.876 70.9731 139.81C71.4356 139.745 71.8982 139.909 72.0634 140.369C72.2947 140.894 71.9312 141.223 71.5017 141.354C70.1801 141.749 68.8586 142.044 67.537 142.406C63.1427 143.588 58.8476 145.132 54.7507 147.136C54.189 147.399 53.363 147.563 53.4621 148.483C54.3212 148.91 54.9489 148.384 55.6427 148.121C60.3344 146.347 65.0921 144.836 69.9489 143.654C71.1053 143.358 72.3278 143.161 73.5172 142.997C73.9136 142.931 74.4753 143.095 74.4423 143.687C74.4423 143.917 74.211 144.212 74.0128 144.376C73.7815 144.574 73.4841 144.672 73.1868 144.738C66.678 146.249 60.5326 148.877 54.2551 151.143L54.2881 150.946ZM297.03 63.634C298.021 65.375 297.624 66.7218 297.525 68.0029C296.204 85.0186 292.173 101.344 284.673 116.718C268.252 150.453 241.523 172.068 205.675 182.81C196.061 185.7 186.182 187.113 176.204 188.164C168.539 188.985 161.039 188.492 153.572 187.277C138.374 184.846 124.332 179.328 111.48 170.984C80.6867 150.913 61.5568 122.762 53.4291 87.1209C51.7441 79.73 51.0833 72.2404 50.7529 64.6852C50.7199 64.0611 50.3895 63.1413 51.645 62.9442C57.1956 68.9555 63.8035 73.6529 71.1383 77.3977C80.6537 82.2265 90.6647 85.6756 100.94 88.3363C122.184 93.8878 143.858 96.3186 165.764 96.9756C185.819 97.5669 205.808 96.3515 225.631 93.1651C239.442 90.9643 253.021 87.8436 266.105 82.8506C277.503 78.5145 288.307 73.1602 297.03 63.634ZM175.378 220.849C180.367 217.005 181.623 213.556 180.037 208.432C179.673 207.315 179.112 206.198 178.451 205.212C175.973 201.468 172.636 198.643 168.506 196.836C166.16 195.818 163.682 195.029 161.27 194.11C160.576 193.847 159.618 193.88 159.552 192.796C162.03 192.927 164.475 193.026 166.887 193.19C171.149 193.518 175.345 192.631 179.574 192.303C190.213 191.449 200.554 189.182 210.697 185.963C218.23 183.565 225.499 180.576 232.503 176.897C233.561 176.338 234.618 175.846 235.907 175.878C245.389 176.24 254.673 174.827 263.825 172.626C278.362 169.144 292.074 163.56 304.893 155.841C310.609 152.392 316.061 148.581 321.149 144.245C322.536 143.062 322.999 143.161 324.122 144.541C326.798 147.858 328.88 151.537 329.904 155.709C331.457 162.082 330.135 167.962 326.798 173.513C323.627 178.769 319.298 182.974 314.442 186.686C306.942 192.434 298.616 196.77 289.959 200.449C273.142 207.578 255.532 212.111 237.592 215.396C226.391 217.465 215.125 218.943 203.792 219.929C195.797 220.619 187.768 221.308 179.706 221.341C178.451 221.341 177.096 221.67 175.378 220.849ZM54.4864 57.3271C52.504 54.8306 51.645 52.0384 51.5128 48.9506C51.3476 44.6803 52.9335 41.0012 55.5436 37.6835C59.7397 32.3291 65.1912 28.5515 71.0722 25.3323C80.8189 19.9451 91.2924 16.4303 102.03 13.6381C119.409 9.10498 137.151 6.90411 155.026 5.6887C172.041 4.53899 188.99 5.13027 205.94 6.60847C218.792 7.72533 231.512 9.79481 244.067 12.9154C254.838 15.5762 265.345 18.9596 275.29 23.9527C280.312 26.482 285.069 29.4384 289.298 33.1503C292.272 35.7782 294.816 38.7675 296.402 42.4465C298.054 46.3556 298.186 50.3631 296.6 54.3378C296.072 55.6846 295.279 55.9474 294.188 55.0276C290.224 51.7099 286.028 48.7864 281.534 46.2242C268.781 38.9646 255.003 34.3329 240.862 30.7852C222.724 26.2192 204.222 23.8541 185.521 23.0329C159.189 21.8832 133.054 23.5256 107.317 29.734C96.6779 32.2963 86.3365 35.6797 76.5238 40.6399C68.6273 44.6474 61.3256 49.4433 55.7419 56.473C55.4776 56.8015 55.015 56.9657 54.4864 57.3271ZM316.688 129.332C315.433 129.299 314.739 128.708 314.012 128.182C307.834 124.076 301.259 120.66 294.486 117.638C289.794 115.535 289.959 116.488 291.942 111.626C295.84 101.969 298.781 92.0154 300.4 81.7009C300.895 78.416 301.391 75.164 301.887 71.8791C302.283 69.2183 302.547 68.9227 304.959 69.3169C309.453 70.0724 313.847 71.1564 317.944 73.2587C328.384 78.6131 333.638 88.7305 331.853 100.228C331.16 104.728 329.805 108.998 327.823 113.104C324.849 119.116 321.149 124.569 316.688 129.332ZM243.076 170.918C244.662 169.801 246.281 168.717 247.768 167.502C249.387 166.188 251.171 165.728 253.186 165.63C258.506 165.301 263.693 164.283 268.847 162.903C277.702 160.505 286.028 156.99 293.924 152.424C306.677 145.066 317.712 135.77 326.105 123.616C330.697 116.948 334.1 109.754 335.422 101.706C337.635 88.205 332.217 76.3794 319.827 69.9082C315.069 67.4445 309.948 66.0977 304.662 65.4079C302.58 65.1451 302.184 64.4553 302.514 62.3529C302.713 61.2361 303.142 60.7762 304.365 60.9404C306.611 61.2032 308.891 61.4989 311.105 61.9587C318.605 63.5026 325.708 66.0648 331.886 70.6637C342.955 78.9087 346.952 89.8802 344.309 103.315C342.889 110.542 339.618 116.981 335.521 123.025C330.466 130.449 324.254 136.821 317.25 142.438C298.55 157.45 277.173 166.615 253.583 170.721C250.246 171.312 246.777 171.969 243.076 170.918ZM256.325 161.064C257.812 159.651 258.671 158.863 259.53 158.074C263.891 154.1 267.955 149.829 271.721 145.329C277.536 138.365 282.492 130.81 286.754 122.795C287.746 120.89 287.977 120.824 289.926 121.645C296.898 124.569 303.704 127.886 310.014 132.124C310.741 132.617 311.666 132.912 311.831 133.963C300.069 147.201 273.671 160.144 256.325 161.064ZM168.01 218.418C163.946 218.089 160.114 217.301 156.513 215.691C152.647 213.95 148.847 212.111 145.048 210.238C142.603 209.023 140.422 207.38 138.605 205.311C137.68 204.293 136.92 203.176 136.59 201.829C135.698 198.216 137.052 195.424 141.182 195.424C142.966 195.424 144.783 195.818 146.568 196.081C149.079 196.475 151.226 197.592 152.548 199.792C154.695 203.34 157.933 204.884 161.865 205.508C164.409 205.902 166.887 206.494 169.365 207.282C172.438 208.267 174.618 210.173 176.138 212.899C177.129 214.64 176.964 215.56 175.312 216.677C173.065 218.122 170.422 218.024 168.01 218.418ZM101.006 209.417C102.559 210.435 103.649 211.224 104.806 211.946C108.539 214.246 112.636 215.166 116.997 214.673C122.317 214.082 125.488 210.994 126.314 205.771C126.413 205.18 126.447 204.555 126.48 203.964C126.513 203.274 126.81 202.782 127.504 202.683C128.264 202.552 129.057 202.65 129.585 203.274C129.85 203.603 129.982 204.063 130.147 204.49C132.46 210.435 136.722 214.509 142.471 217.137C144.387 218.024 146.336 218.878 148.253 219.797C148.781 220.06 149.409 220.257 149.409 221.013C140.885 221.341 112.438 218.549 99.321 216.085C98.2307 215.888 96.9753 215.855 95.8189 214.804C97.8012 213.293 99.4202 211.552 101.006 209.417ZM115.742 35.4826C115.543 34.9242 115.808 34.4643 116.204 34.3C119.64 33.0518 123.143 32.0992 126.711 31.4422C132.394 30.391 138.076 29.6355 143.825 28.9785C156.215 27.566 168.638 27.2375 181.061 27.5989C193.814 27.9602 206.468 29.4713 219.089 31.0152C221.336 31.2779 223.616 31.5736 225.863 31.9349C226.755 32.0663 227.614 32.3948 228.44 32.6904C228.638 32.7561 228.704 33.1503 228.803 33.4131C228.935 33.7744 228.77 34.0701 228.407 34.0701C227.515 34.1358 226.622 34.2343 225.73 34.1358C222.261 33.7416 218.792 33.3146 215.356 32.8547C207.228 31.7378 199.101 30.6867 190.94 30.2925C175.775 29.537 160.642 29.3727 145.51 31.0152C136.292 32.0335 127.14 33.0518 118.22 35.6797C117.658 35.8439 117.03 35.8768 116.436 35.8439C116.138 35.9096 115.907 35.614 115.742 35.4826ZM147.724 191.35C145.015 191.712 142.768 192.04 140.521 192.303C136.424 192.796 132.889 194.175 130.742 197.986C130.411 198.577 129.883 198.971 129.288 198.807C127.834 198.446 126.447 197.92 125.026 197.427C124.927 197.394 124.761 197.132 124.795 197.066C124.927 196.836 125.092 196.573 125.323 196.475C125.587 196.376 125.918 196.508 126.215 196.475C126.678 196.442 127.405 197.197 127.537 196.179C127.57 195.982 126.876 195.588 126.48 195.522C125.026 195.194 123.473 195.062 122.317 193.945C122.118 193.748 121.953 193.387 121.986 193.157C122.019 192.993 122.416 192.73 122.647 192.73C124.101 192.894 125.554 193.091 127.768 193.387C126.182 192.27 125.092 192.007 123.969 191.712C122.515 191.35 121.094 190.858 119.64 190.365C119.409 190.299 119.178 189.905 119.178 189.642C119.178 189.478 119.574 189.215 119.806 189.182C121.193 188.887 122.548 190.266 124.299 189.248C122.581 188.788 121.094 188.46 119.706 187.934C118.385 187.441 116.667 187.54 115.94 185.897C117.724 184.682 119.508 186.719 121.425 185.7C119.409 185.076 117.592 184.485 115.742 183.894C115.18 183.729 114.552 183.598 113.991 183.434C113.396 183.269 112.57 183.007 112.669 182.415C112.768 181.693 113.594 181.89 114.156 182.054C115.676 182.448 117.195 182.875 119.64 182.383C115.973 180.904 112.669 181.069 109.2 179.229C113.495 179.295 117.03 179.328 120.334 181.036C127.107 184.485 134.178 187.113 141.48 189.215C143.429 189.872 145.609 189.839 147.724 191.35ZM112.107 208.3C110.158 208.399 107.68 208.037 105.4 206.559C103.583 205.41 102.526 203.931 102.526 201.796C102.526 200.909 102.724 199.99 102.46 199.168C101.006 194.405 99.5854 189.642 96.7109 185.47C95.5876 183.861 94.3651 182.317 93.2418 180.707C92.9444 180.28 92.1515 179.82 92.9114 179.262C93.1757 179.065 93.8365 179.131 94.1669 179.328C97.8343 181.299 100.94 183.894 102.889 187.638C103.649 189.117 104.442 190.595 105.07 192.106C106.557 195.719 109.002 198.511 112.306 200.581C113.858 201.533 115.411 202.486 116.898 203.504C117.757 204.096 118.55 204.818 119.244 205.607C119.673 206.067 119.673 206.724 118.98 207.085C117.03 208.202 114.916 208.202 112.107 208.3ZM169.2 34.4314C177.592 34.3329 184.993 34.6614 192.393 35.384C199.167 36.0739 205.973 36.6651 212.746 37.3221C213.638 37.4207 214.563 37.5849 215.422 37.782C216.149 37.9463 217.008 38.0448 216.843 39.1288C216.711 39.8843 215.984 39.8186 215.422 39.8515C214.959 39.8843 214.53 39.8186 214.067 39.7858C207.294 39.1288 200.488 38.4061 193.715 37.7492C180.268 36.4681 166.788 35.9425 153.308 37.355C150.136 37.6835 146.997 38.0448 143.825 38.3733C142.702 38.5047 141.942 38.0448 142.14 37.4864C142.339 36.8294 142.867 36.5666 143.462 36.4352C144.189 36.2381 144.949 36.0739 145.676 36.0082C153.803 35.0884 161.964 34.2672 169.2 34.4314ZM61.0612 160.669C66.2484 160.177 70.3454 161.096 73.6824 164.48C75.5326 166.352 77.7132 167.601 80.4224 167.929C81.4797 168.06 82.5039 168.356 83.4951 168.685C85.8739 169.473 87.7572 170.951 89.0457 173.086C89.277 173.481 89.4753 173.908 89.5744 174.335C89.6735 174.762 89.6404 175.254 89.1779 175.484C88.9466 175.616 88.5501 175.681 88.3188 175.583C87.7572 175.353 87.2286 175.057 86.766 174.696C80.8189 170.36 76.3255 169.374 70.2793 167.075C69.4533 166.746 69.189 167.174 68.7925 167.601C68.5943 167.798 68.5282 168.126 68.396 168.422C68.1978 168.882 67.9995 168.882 67.8344 168.487C67.8344 168.126 67.8013 167.831 67.8344 167.535C67.9335 166.648 68.2639 165.531 66.6449 166.352C66.4467 166.451 66.1824 166.418 65.9181 166.451C65.885 165.071 64.3983 165.268 63.8035 164.513C63.0106 163.462 62.2837 162.345 61.0612 160.669ZM171.248 41.1654C182.911 41.0012 194.442 42.6765 205.94 44.4503C206.534 44.5489 207.096 44.7131 207.625 44.9759C207.823 45.0744 208.087 45.5015 208.021 45.6986C207.889 46.0599 207.592 46.5855 207.294 46.684C206.733 46.8154 206.105 46.684 205.51 46.5855C199.662 45.83 193.847 44.9102 187.999 44.2861C178.682 43.3335 169.365 42.4137 159.982 43.4649C159.684 43.4977 159.354 43.4977 159.09 43.3992C158.858 43.3006 158.66 43.005 158.495 42.775C158.264 42.4794 158.396 42.2494 158.693 42.0195C159.453 41.4282 160.345 41.2968 161.237 41.264C164.607 41.1983 167.911 41.1983 171.248 41.1654ZM191.369 52.7282C190.609 52.6625 190.147 52.6625 189.717 52.5968C183.737 51.7099 177.724 51.0201 171.678 50.823C170.951 50.7901 170.191 50.593 169.464 50.396C169.266 50.3303 169.068 49.9361 169.101 49.7061C169.134 49.4762 169.365 49.082 169.563 49.0492C170.29 48.8849 171.017 48.7207 171.744 48.7535C174.321 48.8849 176.865 49.0163 179.442 49.2462C183.208 49.6076 186.942 50.0675 190.708 50.5274C191.435 50.6259 192.162 50.8558 192.856 51.1186C193.054 51.1843 193.153 51.5785 193.253 51.8413C193.352 52.2026 193.186 52.4326 192.856 52.4983C192.261 52.5968 191.667 52.6954 191.369 52.7282ZM64.3652 154.001C64.4643 153.081 65.1912 152.983 65.6868 152.851C69.7506 151.767 73.8475 150.749 77.9444 149.731C78.374 149.632 78.9026 149.599 79.266 149.764C79.6295 149.928 79.8938 150.322 80.092 150.683C80.1581 150.782 79.8607 151.242 79.6295 151.308C77.1846 152.063 74.7066 152.687 72.2947 153.508C69.6515 154.428 67.0414 154.428 64.3652 154.001ZM182.184 54.8305C182.184 54.9291 182.184 54.9948 182.184 55.0933C184.134 55.2247 186.083 55.3561 188.032 55.5532C188.23 55.5861 188.528 55.8817 188.594 56.1445C188.726 56.6372 188.429 57.0643 187.966 57.0971C184.365 57.4913 180.764 57.1957 177.195 56.5715C176.766 56.5058 176.369 56.2759 176.369 55.7503C176.369 55.2247 176.832 54.8962 177.228 54.8962C178.88 54.8306 180.532 54.8634 182.184 54.8305ZM107.515 209.811C110.521 209.877 112.603 209.877 114.684 209.976C116.799 210.074 118.682 208.859 120.995 208.76C119.607 210.534 118.913 211.06 117.427 211.388C114.288 212.045 111.248 211.552 107.515 209.811ZM105.466 173.283C102.427 172.495 99.0237 173.776 96.3145 171.378C99.4532 171.477 102.658 171.312 105.466 173.283ZM76.689 155.906C76.1273 155.709 75.7308 155.578 75.3013 155.414C75.2352 155.381 75.2022 155.184 75.2022 155.052C75.2022 154.921 75.2021 154.658 75.2682 154.625C77.5149 153.87 79.7616 153.147 82.1405 153.18C82.3057 153.18 82.603 153.541 82.57 153.706C82.5369 153.935 82.3057 154.297 82.1075 154.362C80.2903 154.921 78.4401 155.414 76.689 155.906ZM235.444 34.1358C237.757 34.0701 239.805 34.8913 239.937 35.9425C239.937 36.0739 239.871 36.271 239.805 36.3367C238.12 37.4207 236.799 36.0082 235.312 35.6797C235.18 35.6468 235.048 35.5154 235.014 35.384C234.882 35.1213 234.684 34.7928 234.783 34.5957C234.816 34.3986 235.213 34.2672 235.444 34.1358ZM81.3145 157.122C81.4467 157.023 81.5458 156.892 81.6779 156.826C82.2396 156.662 82.8343 156.531 83.396 156.399C84.9488 156.103 86.766 156.596 86.4356 157.187C85.7748 158.239 84.6184 158.074 83.6273 158.173C82.7021 158.304 81.8762 157.976 81.3145 157.122ZM184.86 62.8457C183.935 62.78 183.175 62.7471 182.449 62.6814C182.316 62.6814 182.118 62.55 182.085 62.4515C181.986 62.2215 181.854 61.8274 181.953 61.696C182.845 60.5462 185.521 60.4805 186.81 61.5646C186.909 61.6303 186.909 61.8602 186.876 61.9916C186.777 62.2215 186.645 62.55 186.446 62.6157C185.885 62.78 185.29 62.8128 184.86 62.8457ZM127.801 199.76C127.702 199.76 128.132 199.792 128.594 199.858C129.288 199.957 129.75 200.318 129.552 201.008C129.453 201.271 128.858 201.501 128.429 201.566C127.999 201.632 127.537 201.501 127.107 201.336C126.678 201.172 126.248 200.909 126.314 200.384C126.38 199.858 126.777 199.694 127.801 199.76ZM89.9048 160.012C89.6735 160.505 89.6405 160.669 89.5744 160.735C89.0457 161.162 88.4841 161.064 87.9885 160.735C87.6581 160.538 87.3938 160.177 87.1295 159.848C87.0964 159.815 87.1955 159.618 87.2946 159.553C87.8233 159.191 88.3849 159.224 88.9466 159.454C89.3101 159.651 89.6405 159.881 89.9048 160.012ZM91.6559 163.297C91.9862 162.805 92.4158 162.936 92.8122 163.067C92.9444 163.1 93.1426 163.297 93.1096 163.363C92.9444 163.889 92.4819 163.921 92.0523 163.79C91.8871 163.724 91.788 163.429 91.6559 163.297ZM96.0501 166.09C95.984 166.188 95.951 166.385 95.8849 166.385C95.6206 166.418 95.2902 166.451 95.0589 166.352C94.7285 166.221 94.8277 165.958 95.2572 165.892C95.4884 165.86 95.7528 165.991 96.0501 166.09ZM96.5127 168.586C96.9092 168.619 97.0743 168.783 96.9091 169.013C96.8431 169.112 96.6449 169.144 96.5127 169.144C96.1162 169.144 95.951 168.947 96.1162 168.685C96.1492 168.619 96.3475 168.619 96.5127 168.586ZM100.015 169.834C99.8497 169.834 99.6845 169.9 99.5853 169.834C99.321 169.637 99.4202 169.473 99.8497 169.44C99.9818 169.44 100.114 169.539 100.213 169.604C100.147 169.703 100.048 169.769 100.015 169.834Z" fill="#270A05"/>
</svg>
