<svg width="178" height="153" viewBox="0 0 178 153" fill="none" xmlns="http://www.w3.org/2000/svg">
<g opacity="0.04">
<path d="M122.13 60.2542C131.857 54.7807 142.339 52.4686 153.481 52.6573C160.233 52.7989 166.702 54.0729 173.17 56.9984C174.445 57.7534 176.003 58.5555 177.42 59.5464C178.553 60.3486 179.639 61.2923 180.63 62.236C187.854 69.2667 188.515 78.8454 182.377 86.9614C179.592 90.689 176.192 93.6618 172.179 95.9267C158.864 103.382 144.747 105.269 129.921 102.108C124.586 100.976 119.628 98.7107 115.237 95.2661C107.352 89.0376 105.511 80.0722 110.468 71.3901C113.254 66.5299 117.315 62.9438 122.13 60.2542ZM112.499 84.6965C116.04 88.896 120.053 92.4349 125.624 93.8505C135.587 96.3985 145.597 97.2951 155.795 95.0302C156.834 94.7942 158.014 93.9921 159.053 95.0302C152.159 98.05 144.888 98.1916 137.57 97.9557C134.643 97.8613 131.668 97.531 128.693 97.5782C131.857 98.9937 135.209 99.5128 138.609 99.7487C147.107 100.362 155.323 99.1353 163.302 96.1154C167.079 94.6527 170.573 92.7652 173.69 90.17L173.548 90.2172C173.548 90.17 173.548 90.17 173.548 90.1228C173.595 90.1228 173.595 90.17 173.642 90.17C176.995 88.0938 179.45 85.2627 181.102 81.6766C181.527 80.7328 181.952 79.742 182.188 78.7511C183.038 75.2593 182.424 73.9381 178.978 72.7113C170.715 69.8801 162.5 69.7386 154.473 73.7494C151.829 75.0706 149.374 76.7693 147.06 78.6567C142.858 82.1012 138.184 82.4315 133.226 80.6857C131.243 79.9779 129.26 79.2229 127.371 78.3264C122.839 76.2974 118.825 77.2411 115.143 80.2138C114.34 80.8744 113.537 81.5822 112.829 82.3372C111.979 83.045 111.838 83.9415 112.499 84.6965ZM111.554 77.6186C111.507 77.9017 111.649 78.3264 111.885 78.5151C112.074 78.6567 112.593 78.7039 112.782 78.5623C113.726 77.8073 114.623 76.9108 115.568 76.1558C119.203 73.1831 123.405 71.8619 127.796 73.8437C133.982 76.6277 139.742 75.5424 145.502 72.7585C146.919 72.0979 148.382 71.4845 149.751 70.7295C157.825 66.294 166.418 65.6806 175.248 67.3321C176.428 67.568 177.609 67.8039 179.78 68.2286C176.192 63.4157 172.132 61.0092 167.599 59.5936C164.388 58.6027 161.13 56.6209 157.495 58.1309C156.456 56.2434 154.52 58.6027 153.387 57.2815C153.009 56.8568 152.537 56.8568 151.971 57.0456C151.262 57.3287 151.31 58.8858 150.035 58.2724C149.468 57.9893 149.09 57.659 148.288 57.8478C147.249 58.0837 145.785 56.4794 145.077 58.6027C145.03 58.6971 144.652 58.7915 144.605 58.7443C143.189 57.0928 142.197 57.14 141.394 59.2633C141.158 59.9711 140.592 59.4992 140.167 59.1689C138.467 57.8006 138.373 57.7534 137.57 59.5936C136.626 61.8113 136.295 60.0183 135.728 59.4049C135.304 58.933 134.879 58.9802 134.406 59.2633C133.698 59.7352 133.982 61.4811 132.187 60.5845C131.526 60.2542 131.479 61.9057 131.007 62.6135C130.865 62.8023 130.44 62.8023 130.157 62.8966C130.015 62.9438 124.916 62.8966 124.822 62.9438C119.25 66.1524 114.293 69.9745 111.885 76.203C111.743 76.6277 111.601 77.1467 111.554 77.6186Z" fill="#270A05"/>
<path d="M159.1 94.983C159.147 94.983 159.195 94.9358 159.242 94.9358C159.195 95.0302 159.147 95.0301 159.147 95.1245C159.147 95.1717 159.147 95.0773 159.1 94.983L159.147 95.1245C159.1 95.0773 159.053 95.0302 159.006 94.983C159.053 95.0302 159.053 94.983 159.1 94.983Z" fill="#270A05"/>
<path d="M133.132 87.9523C133.887 89.2263 134.548 90.5946 134.643 92.1518C134.643 92.2933 134.501 92.5293 134.454 92.5293C134.123 92.5293 133.698 92.5764 133.509 92.3877C132.376 91.2081 131.857 89.7925 132.187 88.1882C132.235 88.0938 132.423 87.9522 132.565 87.9051C132.707 87.8579 132.896 87.9523 133.132 87.9523Z" fill="#270A05"/>
<path d="M171.282 87.2917C171.282 86.6311 171.235 85.8289 172.084 85.7345C172.651 85.6402 172.887 86.2536 172.981 86.7726C173.17 87.8579 173.359 88.9904 173.501 90.1228C172.226 89.5566 171.282 88.8016 171.282 87.2917Z" fill="#270A05"/>
<path d="M158.392 88.5185C159.147 89.3206 159.053 90.4059 159.147 91.3968C159.194 91.8215 158.958 92.1046 158.581 92.0102C157.872 91.8215 157.117 89.2735 157.495 88.4241C157.636 88.3769 157.825 88.2826 157.967 88.3298C158.109 88.2826 158.25 88.3769 158.392 88.5185Z" fill="#270A05"/>
<path d="M138.75 89.415C138.75 89.2735 138.845 89.0847 138.939 88.9903C139.27 88.7072 139.6 88.7544 139.789 89.1319C140.45 90.2644 141.205 91.3968 141.253 92.8124C141.253 92.954 141.158 93.1427 141.064 93.1899C140.922 93.2843 140.733 93.2843 140.403 93.3786C139.6 92.199 138.609 91.0665 138.75 89.415Z" fill="#270A05"/>
<path d="M136.153 88.896C137.381 88.2826 137.334 89.6981 137.617 90.3587C137.9 90.9721 137.9 91.6799 138.042 92.3405C138.137 92.7652 137.948 93.0483 137.523 93.0483C137.381 93.0483 137.192 92.954 136.862 92.9068C136.626 92.4349 136.248 91.8687 136.012 91.2553C135.681 90.4531 135.256 89.3206 136.153 88.896Z" fill="#270A05"/>
<path d="M129.024 87.8107C129.543 89.0375 130.252 90.2644 130.11 91.7271C127.844 90.2172 127.466 89.6038 127.844 87.8107C127.891 87.6691 128.08 87.4804 128.174 87.5276C128.457 87.5748 128.929 87.622 129.024 87.8107Z" fill="#270A05"/>
<path d="M153.906 89.415C154.19 89.415 154.567 90.1228 154.756 90.5475C154.945 91.0194 154.945 91.5856 154.945 92.1046C154.945 92.3877 154.709 92.8124 154.52 92.9068C154.331 93.0012 153.906 92.7652 153.67 92.5765C153.34 92.3406 153.009 92.0103 152.679 91.7271C152.773 91.444 152.915 91.2081 152.962 90.925C153.104 90.2172 153.009 89.3678 153.906 89.415Z" fill="#270A05"/>
<path d="M120.431 85.8289C121.328 86.112 121.894 88.1882 121.281 88.9432C121.186 89.0375 120.95 89.0847 120.808 89.0375C119.77 88.7544 119.25 86.867 119.959 86.0176C120.053 85.9233 120.242 85.9233 120.431 85.8289Z" fill="#270A05"/>
<path d="M142.48 89.0375C142.764 88.9903 143.188 89.179 143.33 89.3678C144.086 90.5002 144.888 91.5855 144.935 93.5673C143.047 92.6708 142.527 91.444 142.103 90.2171C141.914 89.8396 141.725 89.179 142.48 89.0375Z" fill="#270A05"/>
<path d="M162.358 87.3861C163.444 89.0376 163.491 91.4912 162.547 90.925C161.414 90.2172 161.319 88.9432 161.225 87.7164C161.178 87.2917 161.461 87.103 161.886 87.1501C162.075 87.2445 162.263 87.2917 162.358 87.3861Z" fill="#270A05"/>
<path d="M125.577 90.1228C125.53 90.2172 124.963 90.4059 124.775 90.2644C123.689 89.4622 123.358 87.6692 124.114 86.7254C124.397 86.7254 124.869 86.6311 124.963 86.7726C125.577 87.7636 125.861 88.896 125.577 90.1228Z" fill="#270A05"/>
<path d="M152.537 91.5856C152.584 91.6328 152.632 91.68 152.679 91.7272C152.679 91.7743 152.632 91.8215 152.632 91.8687C152.584 91.8215 152.537 91.7743 152.49 91.6799C152.49 91.6328 152.49 91.5856 152.537 91.5856Z" fill="#270A05"/>
<path d="M151.026 89.8397C151.546 90.4059 151.971 91.0193 152.443 91.6327C151.262 93.1898 150.932 93.1898 150.318 91.7743C150.129 91.3024 149.94 90.8306 149.846 90.3115C149.799 90.0756 149.987 89.6037 150.176 89.5565C150.412 89.5565 150.837 89.6509 151.026 89.8397Z" fill="#270A05"/>
<path d="M146.446 89.0375C146.588 89.0375 146.824 89.0847 146.871 89.1791C147.674 90.1228 148.099 91.2081 148.241 92.3877C148.288 92.6236 147.863 92.8596 147.674 93.1427C147.532 93.0955 147.343 93.0955 147.296 93.0483C146.494 92.1046 146.21 90.9249 145.974 89.7453C145.88 89.2734 146.069 88.9903 146.446 89.0375Z" fill="#270A05"/>
<path d="M169.251 86.3008C169.96 87.3389 170.432 88.4242 169.818 89.651C169.724 89.8397 169.299 89.8397 168.968 89.8869C168.213 88.9432 168.071 87.7636 168.166 86.5368C168.166 86.3008 168.59 86.1121 168.874 85.9705C168.921 85.9705 169.157 86.1593 169.251 86.3008Z" fill="#270A05"/>
<path d="M164.813 86.7726C164.955 86.7254 165.191 86.6782 165.285 86.7254C166.088 87.4804 166.418 88.4241 166.23 89.5094C166.23 89.6509 166.088 89.7925 165.946 89.8869C165.805 89.9812 165.569 90.0284 165.521 89.9812C164.813 89.1791 164.577 88.1882 164.577 87.1501C164.624 87.0085 164.719 86.8198 164.813 86.7726Z" fill="#270A05"/>
<path d="M159.856 83.7055C159.95 83.9415 159.856 84.2717 159.856 84.5077C159.572 84.5077 159.289 84.4605 159.006 84.4605C159.053 84.1774 158.959 83.7999 159.1 83.564C159.289 83.2808 159.714 83.328 159.856 83.7055Z" fill="#270A05"/>
<path d="M171.282 79.7419C171.801 79.8363 172.084 80.2137 171.895 80.7328C171.801 80.9687 171.423 81.1103 171.187 81.299C170.951 80.9215 170.715 80.5912 170.432 80.2138C170.809 79.9778 171.093 79.6947 171.282 79.7419Z" fill="#270A05"/>
<path d="M166.749 82.29C167.079 81.9125 167.41 81.9596 167.599 82.3843C167.741 82.6674 167.741 83.0449 167.788 83.3752C167.457 83.328 167.079 83.328 166.796 83.1865C166.466 82.9977 166.466 82.6203 166.749 82.29Z" fill="#270A05"/>
<path d="M151.593 84.6964C151.64 84.602 151.876 84.5077 152.018 84.5548C152.537 84.6492 152.82 85.0267 152.679 85.5457C152.632 85.7345 152.254 85.8288 152.018 85.9232C151.546 85.6401 151.404 85.2154 151.593 84.6964Z" fill="#270A05"/>
<path d="M175.295 85.4986C175.342 85.8761 175.153 86.112 174.728 86.0176C174.634 86.0176 174.539 85.7817 174.445 85.6873C174.634 85.4986 174.823 85.3098 175.012 85.1211C175.106 85.2155 175.248 85.357 175.295 85.4986Z" fill="#270A05"/>
<path d="M162.641 83.0449C162.783 82.9506 162.925 82.809 163.019 82.8562C163.161 82.8562 163.35 82.9977 163.397 83.1393C163.444 83.564 163.255 83.7055 162.877 83.5168C162.736 83.3752 162.689 83.1865 162.641 83.0449Z" fill="#270A05"/>
<path d="M155.087 84.1302C155.087 84.0358 155.512 83.9886 155.512 83.9886C155.653 84.2246 155.842 84.5549 155.795 84.7436C155.701 84.9324 155.323 85.0267 155.04 85.1211C155.04 84.7908 155.04 84.4605 155.087 84.1302Z" fill="#270A05"/>
<path d="M161.036 94.3695C160.989 94.3695 160.894 94.3695 160.847 94.3695C160.941 94.2751 161.036 94.1807 161.178 94.0392C161.13 94.1807 161.083 94.3695 161.036 94.3695Z" fill="#270A05"/>
<path d="M160.847 94.4167C160.8 94.4639 160.705 94.5583 160.658 94.6054L160.611 94.4167C160.658 94.4167 160.753 94.4167 160.847 94.4167Z" fill="#270A05"/>
<path d="M160.375 94.5111C159.997 94.6527 159.619 94.7942 159.242 94.983C159.478 94.4167 159.903 94.2752 160.375 94.5111Z" fill="#270A05"/>
<path d="M160.658 94.6054C160.564 94.5583 160.469 94.5583 160.375 94.5111C160.422 94.4639 160.517 94.4639 160.564 94.4167L160.658 94.6054Z" fill="#270A05"/>
<path d="M130.582 67.8984C130.912 67.9456 131.337 67.9456 131.479 68.1343C132.234 69.1252 132.612 70.2577 132.376 71.4845C132.329 71.7204 131.951 71.9092 131.668 72.0979C131.573 72.1451 131.337 72.0035 131.243 71.9092C130.299 70.8239 129.732 69.6442 130.157 68.1815C130.346 68.0871 130.487 67.8984 130.582 67.8984Z" fill="#270A05"/>
<path d="M138.231 66.813C138.372 66.813 138.561 66.8603 138.656 66.9546C139.553 68.1343 139.836 69.4555 139.742 70.871C139.742 71.0126 139.6 71.1542 139.458 71.2013C139.317 71.2957 139.081 71.3429 138.986 71.2485C137.806 70.0217 137.523 68.5589 137.711 66.9546C137.948 66.9546 138.089 66.813 138.231 66.813Z" fill="#270A05"/>
<path d="M136.248 70.8238C136.295 71.2484 136.059 71.4844 135.681 71.5315C135.54 71.5315 135.351 71.4372 135.256 71.2956C134.454 69.8329 133.557 68.4173 134.454 66.4355C135.87 67.8511 136.012 69.361 136.248 70.8238Z" fill="#270A05"/>
<path d="M141.536 66.2468C141.819 66.294 142.197 66.5299 142.291 66.7659C142.622 67.7096 142.858 68.7005 143.047 69.6914C143.094 69.8801 142.669 70.1632 142.48 70.3992C142.339 70.3048 142.197 70.2576 142.103 70.1632C141.347 69.1723 141.111 68.0399 141.017 66.8602C140.969 66.4356 141.064 66.1525 141.536 66.2468Z" fill="#270A05"/>
<path d="M144.841 65.775C145.124 66.1053 145.502 66.4827 145.644 66.8602C145.833 67.4265 146.116 68.0871 145.549 68.6533C145.455 68.7477 145.219 68.7477 145.077 68.6533C144.416 68.2758 143.991 66.7187 144.369 65.9637C144.558 65.9165 144.841 65.7278 144.841 65.775Z" fill="#270A05"/>
<path d="M127.843 69.3611C128.646 69.7386 129.213 71.5316 128.693 72.0507C128.599 72.1451 128.316 72.145 128.174 72.0979C127.23 71.7676 126.71 70.1161 127.324 69.5498C127.513 69.4083 127.702 69.4083 127.843 69.3611Z" fill="#270A05"/>
<path d="M149.185 65.539C149.374 65.9637 149.468 66.4827 149.421 66.9546C149.421 67.0961 148.949 67.2377 148.713 67.3792C148.288 66.7658 148.146 66.1524 148.429 65.4918C148.429 65.3974 149.138 65.4446 149.185 65.539Z" fill="#270A05"/>
<path d="M152.584 65.4446C152.348 65.8221 151.971 65.7749 151.782 65.3503C151.687 65.0672 151.782 64.7369 151.782 64.4066C152.112 64.4537 152.49 64.4065 152.679 64.5481C152.773 64.7368 152.726 65.2087 152.584 65.4446Z" fill="#270A05"/>
<path d="M156.362 64.5481L156.078 64.4537L156.314 64.2178L156.362 64.5481Z" fill="#270A05"/>
<path d="M46.1138 10.0958C48.805 7.50057 51.9685 5.66033 55.4152 4.29194C66.6524 -0.143524 78.2202 -1.18162 90.024 1.36642C95.5482 2.54606 100.789 4.62223 104.85 8.86895C109.477 13.6819 109.713 19.3442 105.511 24.4874C103.386 27.1299 100.647 29.0173 97.6729 30.5744C89.8824 34.6324 81.5253 36.2367 71.6573 36.1895C66.2275 36.1895 59.8062 35.5761 53.7154 33.0281C51.2602 31.99 48.9467 30.7632 46.9164 29.1117C40.1174 23.4966 39.8341 16.2299 46.1138 10.0958ZM91.2989 6.36811C81.0531 3.48978 70.8546 3.86726 60.7033 6.74559C56.1706 8.01961 52.8183 10.143 49.6549 13.6819C51.4491 13.3516 52.4878 13.1157 53.5266 12.9741C56.5483 12.4551 59.4757 12.7854 62.2614 14.1066C63.5362 14.72 64.811 15.239 66.0386 15.9468C69.4854 17.9286 73.0737 17.8814 76.6621 16.6546C78.6451 15.994 80.6282 15.1919 82.4696 14.2481C87.4744 11.6529 92.7625 10.9923 98.2867 11.4642C98.8061 11.5114 99.3255 11.5114 99.8448 11.4642C99.9393 11.4642 100.034 11.2754 100.128 11.1339C97.7201 8.53866 96.0676 7.68931 91.2989 6.36811ZM47.0581 21.326C48.0024 23.4966 49.6549 25.0537 51.5907 26.2805C54.707 28.3095 58.1537 29.5835 61.7892 30.3385C65.897 31.235 70.052 31.8956 73.3098 31.6597C81.1948 31.6125 87.8994 30.6216 94.3206 27.932C96.4453 27.0355 98.4284 25.9502 100.223 24.5346C101.875 23.2134 103.292 21.6563 104.094 19.6745C104.802 17.9758 104.472 17.1265 102.678 16.4187C101.545 15.9468 100.364 15.6165 99.231 15.1919C94.9344 13.5404 90.9684 14.2953 87.1911 16.7018C85.4442 17.8343 83.8388 19.2498 82.1391 20.4767C76.9454 24.2515 71.4684 24.5346 65.897 21.4204C63.7723 20.2407 61.8365 18.6836 59.759 17.4096C56.4067 15.3806 52.8656 14.9087 49.1828 16.3715C46.6803 17.268 45.9721 18.9667 47.0581 21.326Z" fill="#270A05"/>
<path d="M87.5688 24.0627C88.1354 24.7705 88.5603 25.5255 88.277 26.422C88.1826 26.658 87.8049 26.8467 87.5688 27.0354C86.7189 27.0354 86.4356 26.3749 86.1995 25.7614C85.9635 25.0536 86.0579 24.4402 86.6717 23.9684C87.0494 23.6853 87.3327 23.7324 87.5688 24.0627Z" fill="#270A05"/>
<path d="M71.5156 25.7615C71.8461 25.8558 72.271 25.8558 72.4127 26.0918C73.0737 26.9883 73.2154 27.9792 72.5543 28.9701C72.5071 29.0645 72.2711 29.0645 72.1294 29.0645C71.2795 28.9701 70.6657 27.8376 70.9018 26.5636C70.9962 26.2805 71.2795 25.9974 71.5156 25.7615Z" fill="#270A05"/>
<path d="M61.2699 23.6381C61.4115 23.5437 61.6004 23.5909 61.742 23.5437C62.4503 23.8268 62.6863 24.4402 62.5919 25.148C62.5447 25.7614 62.5447 26.5164 61.6948 26.658C61.5532 26.7052 61.3643 26.658 61.2227 26.5636C60.1839 25.8086 60.2312 24.2043 61.2699 23.6381Z" fill="#270A05"/>
<path d="M56.9733 22.2697C57.5871 22.1281 57.8704 22.6 58.012 23.0718C58.1537 23.5437 58.1537 24.0627 58.1537 24.5346C58.1065 24.8177 57.9176 25.2424 57.6815 25.3368C57.4455 25.4311 57.0677 25.1952 56.8316 25.0536C56.2178 24.629 56.1706 23.9684 56.1234 22.9775C56.0762 22.6472 56.5011 22.364 56.9733 22.2697Z" fill="#270A05"/>
<path d="M65.0944 25.4311C65.8498 25.2896 66.3692 25.903 66.4164 26.6108C66.4636 27.4601 66.2748 28.451 65.236 28.4982C64.3389 28.5454 64.4806 27.6489 64.3389 27.0826C64.3389 26.3748 64.3389 25.5727 65.0944 25.4311Z" fill="#270A05"/>
<path d="M52.7239 21.09C53.3377 20.9957 53.621 21.4203 53.7627 21.8922C53.9987 22.6 53.8099 23.4021 53.1961 23.6852C52.4878 24.0155 51.9685 23.4493 51.874 22.6472C51.8268 21.9866 51.8268 21.326 52.7239 21.09Z" fill="#270A05"/>
<path d="M68.2105 25.7614C69.202 26.0917 69.4853 28.2151 68.6827 28.8285C68.541 28.9701 67.9272 28.8285 67.8328 28.6398C67.5495 28.0264 67.3606 27.3658 67.2662 26.9883C67.4079 26.1861 67.5495 25.5727 68.2105 25.7614Z" fill="#270A05"/>
<path d="M84.1221 25.7142C84.2638 26.422 84.2638 27.0355 83.3667 27.2242C82.7057 27.3658 82.564 26.7995 82.3279 26.3748C81.9974 25.7142 82.2335 25.1008 82.7057 24.5818C83.4611 24.5818 83.9805 24.9593 84.1221 25.7142Z" fill="#270A05"/>
<path d="M90.7322 23.4965C91.9126 23.638 91.771 24.5817 91.7237 25.3839C91.7237 25.6198 91.3932 25.8086 91.2516 26.0445C90.3545 25.667 90.024 24.912 90.1184 24.0627C90.1184 23.8268 90.5434 23.4965 90.7322 23.4965Z" fill="#270A05"/>
<path d="M94.4151 23.0246C94.5095 23.2134 94.2734 23.5437 94.1318 23.8268C93.8485 23.6853 93.4236 23.6381 93.3291 23.4493C93.2347 23.2606 93.4708 22.8831 93.5652 22.6C93.8957 22.7415 94.2734 22.7887 94.4151 23.0246Z" fill="#270A05"/>
<path d="M79.4006 26.9882C79.4478 27.2241 79.1645 27.696 78.9757 27.7432C78.4091 27.9319 78.2674 27.3657 78.1258 26.941C78.2674 26.6579 78.3619 26.2332 78.5507 26.186C79.1645 26.0445 79.3534 26.6107 79.4006 26.9882Z" fill="#270A05"/>
<path d="M76.0955 26.7053C76.0483 26.9884 75.765 27.1771 75.5761 27.413C75.3873 27.1771 75.1512 26.9412 74.9623 26.7524C75.0568 26.4693 75.1512 25.9975 75.34 25.9503C75.8594 25.8087 76.1427 26.1862 76.0955 26.7053Z" fill="#270A05"/>
<path d="M77.4176 12.6439C76.4733 12.3136 76.2372 12.8798 75.9539 13.5404C75.765 13.9651 75.4345 14.0595 75.1985 13.7763C75.0096 13.5404 74.9152 13.2101 74.7735 12.927C74.8207 11.0867 75.6706 10.4733 77.3232 11.1811C77.6065 11.2755 77.7953 11.653 77.8897 11.9361C78.0314 12.4079 77.7481 12.7854 77.4176 12.6439Z" fill="#270A05"/>
<path d="M73.2626 12.5966C72.8376 12.5966 72.6488 12.3607 72.7904 11.9832C72.8376 11.8416 73.0265 11.7944 73.1681 11.7001C73.5459 11.7001 73.7347 11.936 73.6403 12.3607C73.5931 12.4551 73.4042 12.5966 73.2626 12.5966Z" fill="#270A05"/>
<path d="M79.3534 12.2663C79.4479 11.9832 79.5895 11.7001 79.6839 11.417C79.8256 11.5114 80.0144 11.5585 80.1089 11.7001C80.3449 12.0776 80.2033 12.3607 79.7784 12.4551C79.6839 12.5023 79.5423 12.3607 79.3534 12.2663Z" fill="#270A05"/>
<path d="M66.8413 12.5966C66.9357 12.4551 66.983 12.3607 67.0774 12.2191C67.1718 12.3135 67.3135 12.3607 67.4079 12.455C67.2663 12.6438 67.1718 12.8325 67.0302 13.0213C66.9357 12.8325 66.8885 12.691 66.8413 12.5966Z" fill="#270A05"/>
<path d="M69.8631 12.2663C69.9575 12.172 70.0519 12.0304 70.1936 11.936C70.288 12.172 70.4297 12.4079 70.4769 12.6438C70.4769 12.7382 70.288 12.8798 70.1936 12.9741C70.0991 12.7382 70.0047 12.5023 69.8631 12.2663Z" fill="#270A05"/>
<path d="M82.5168 11.0867C82.4696 11.0395 82.7057 10.8507 82.8001 10.7563C82.8945 10.8507 83.1306 10.9923 83.1306 11.0395C82.9418 11.5113 82.7057 11.5585 82.5168 11.0867Z" fill="#270A05"/>
<path d="M181.905 86.9142C185.021 84.8853 188.515 83.7056 192.198 83.045C204.096 80.8745 215.664 82.1013 226.713 86.867C231.906 89.132 236.675 92.1519 239.791 97.0592C243.427 102.674 242.53 108.289 237.43 112.536C234.834 114.707 231.812 116.075 228.554 117.019C220.102 119.52 211.604 119.472 201.924 117.491C196.636 116.453 190.451 114.612 184.927 110.885C182.708 109.422 180.678 107.77 179.025 105.694C173.406 98.8994 174.54 91.7272 181.905 86.9142ZM226.949 91.9631C217.458 87.1974 207.401 85.5458 196.872 86.3952C192.198 86.7727 188.515 88.1883 184.691 91.0666C186.532 91.0666 187.571 91.0666 188.61 91.1138C191.679 91.2081 194.464 92.0575 196.92 93.8977C198.053 94.7471 199.233 95.5021 200.272 96.4458C203.246 99.041 206.788 99.7016 210.565 99.1826C212.642 98.8994 214.72 98.5219 216.75 97.9557C222.133 96.3986 227.468 96.7761 232.803 98.286C233.323 98.4276 233.795 98.5219 234.314 98.6163C234.409 98.6163 234.55 98.4276 234.645 98.3804C232.851 95.3605 231.387 94.1809 226.949 91.9631ZM180.63 98.1445C181.15 100.457 182.472 102.297 184.124 103.901C186.816 106.496 189.932 108.431 193.331 109.894C197.203 111.545 201.122 113.055 204.38 113.433C212.123 114.943 218.922 115.226 225.721 113.81C227.987 113.338 230.112 112.63 232.142 111.592C234.031 110.602 235.683 109.375 236.864 107.534C237.855 105.977 237.714 105.081 236.108 104.043C235.07 103.382 233.984 102.816 232.945 102.155C229.073 99.7016 225.013 99.6544 220.858 101.306C218.922 102.061 217.081 103.146 215.192 103.996C209.337 106.685 203.907 105.93 199.044 101.778C197.203 100.221 195.598 98.3332 193.756 96.6817C190.876 94.0393 187.477 92.9068 183.605 93.6146C181.055 94.0865 180.064 95.5964 180.63 98.1445Z" fill="#270A05"/>
<path d="M50.3631 36.7086C54.3292 35.0571 58.4841 34.5852 62.7335 35.1515C65.8497 35.5761 68.9659 36.048 72.0349 36.8973C79.9199 39.0207 87.0022 42.7956 92.8097 48.6466C95.5482 51.4305 97.7673 54.4976 98.9477 58.2725C101.025 65.0672 98.3339 70.8711 91.771 73.7022C88.5131 75.1178 85.0664 75.6369 80.9586 75.6841C69.0132 74.8347 58.012 70.5408 49.1827 61.4339C47.8607 60.0655 46.6803 58.5084 45.5943 56.9041C44.2251 54.8751 43.2808 52.6102 42.9031 50.1565C41.9115 44.0224 44.6028 39.0679 50.3631 36.7086ZM91.1572 52.2799C83.7444 44.2111 74.4902 39.5869 63.6306 38.3129C60.4672 37.9354 57.351 38.5016 54.3292 39.5869C54.0931 39.6813 53.9987 40.1531 53.8098 40.4834C55.0374 41.2856 56.4539 40.8609 57.7759 41.0497C61.9309 41.5687 65.5192 43.173 68.2577 46.4289C69.0604 47.3726 69.863 48.2691 70.7129 49.1656C73.5931 52.2327 76.9453 54.2145 81.2892 54.3561C82.3279 54.4033 83.3666 54.592 84.4526 54.6392C87.1911 54.8279 89.5518 55.9132 91.6293 57.6119C92.7153 58.5084 93.754 59.4049 95.5482 61.0093C94.84 56.8569 93.1874 54.4504 91.1572 52.2799ZM74.8206 71.1542C74.8679 71.2014 75.1512 70.9183 75.1512 70.8711C75.0095 70.588 74.8207 70.352 74.6318 70.1161C74.2541 70.0689 73.9708 70.2577 74.1124 70.6352C74.2068 70.8711 74.5846 71.0126 74.8206 71.1542ZM71.0434 69.8802C71.1378 69.5971 71.2795 69.3612 71.3267 69.078C71.3267 69.0309 70.9962 68.7949 70.9962 68.8421C70.8073 69.0309 70.6657 69.2196 70.5713 69.4083C70.7129 69.5499 70.8546 69.7386 71.0434 69.8802ZM66.9357 68.4646C67.219 68.5118 67.5967 68.3703 67.7856 68.1343C68.1161 67.7097 67.4078 66.7187 66.8413 66.8603C66.6052 66.9075 66.4163 67.1906 66.2747 67.3322C66.0858 68.0871 66.4163 68.4174 66.9357 68.4646ZM63.4417 66.9075C63.6778 66.7659 63.9611 66.6244 64.0556 66.3884C64.2444 65.9166 64.1028 65.3975 63.5834 65.256C63.4418 65.2088 63.064 65.4919 62.9696 65.7278C62.7807 66.1525 63.064 66.8603 63.4417 66.9075ZM60.1839 64.3595C60.2783 64.3123 60.4672 64.2651 60.4672 64.2179C60.4672 64.0763 60.42 63.9348 60.3727 63.8404C60.2783 63.8876 60.0422 63.9348 60.0422 63.9348C60.0895 64.0763 60.1367 64.2179 60.1839 64.3595ZM56.8788 62.1417C57.0677 62.0945 57.3038 61.6227 57.2565 61.4339C57.2093 61.198 56.8316 61.0564 56.5955 60.8677C56.4067 61.0564 56.0289 61.198 56.0289 61.4339C55.9345 62.0002 56.3594 62.2833 56.8788 62.1417ZM53.9515 59.7352C54.1403 59.6881 54.3292 59.2162 54.3292 58.9331C54.2348 58.2253 53.7154 57.8478 53.0072 57.8006C52.8655 58.0837 52.6294 58.414 52.6766 58.65C52.7711 59.3578 53.196 59.8296 53.9515 59.7352ZM49.6077 54.8279C49.7021 54.8751 49.8909 54.9695 49.9382 54.9223C50.0326 54.8279 50.127 54.6392 50.127 54.4976C50.0326 54.0258 49.7965 53.9786 49.5604 54.3561C49.466 54.4504 49.6077 54.6392 49.6077 54.8279ZM48.2856 46.5232C48.7578 48.5994 49.7965 50.4396 51.0241 52.1383C53.0072 54.8279 55.4151 57.14 58.2009 58.9803C63.9139 62.8023 70.1463 65.5863 76.7565 67.3793C79.1172 67.9928 81.5724 68.3703 84.0749 68.3703C87.0022 67.9456 89.9768 67.5209 92.9041 67.049C93.754 66.9075 94.7928 66.7187 95.0288 65.8222C95.3121 64.8785 94.4622 64.2651 93.754 63.746C90.7794 61.4811 87.5216 59.4993 83.7916 59.3106C76.1899 58.8859 70.5713 55.2054 65.9914 49.4959C62.0253 44.4942 56.5483 43.173 50.5047 43.409C48.6633 43.4562 47.8607 44.6358 48.2856 46.5232Z" fill="#270A05"/>
<path d="M77.8896 62.236C79.1644 62.5663 80.3448 63.1326 81.5252 63.7932C81.6669 63.8875 81.4308 64.7841 81.2419 65.2559C81.0531 65.7278 80.7698 66.3412 80.156 66.1525C79.07 65.8222 77.9841 65.3503 76.9453 64.8313C76.7565 64.7369 76.8037 64.1706 76.7092 63.6044C76.9925 63.1326 77.5591 62.1417 77.8896 62.236Z" fill="#270A05"/>
<path d="M75.104 61.5755C75.8122 61.6699 75.9066 62.1889 75.9066 62.6608C75.9066 63.3214 76.0011 64.1707 75.104 64.3123C74.5374 64.4066 74.3013 63.7932 74.3013 63.2742C74.3013 62.5664 74.3485 61.8586 75.104 61.5755Z" fill="#270A05"/>
<path d="M70.949 60.3486C71.0906 60.3014 71.3267 60.3014 71.4212 60.3958C72.1294 60.9149 71.8933 61.5754 71.6572 62.1889C71.4684 62.7079 71.0434 62.991 70.5241 62.8023C70.288 62.7079 70.1463 62.236 70.0991 61.9529C70.0519 61.2451 70.1463 60.5845 70.949 60.3486Z" fill="#270A05"/>
<path d="M66.8413 60.7733C66.8413 60.7261 66.8413 60.6789 66.8413 60.6317H66.8885L66.8413 60.7733Z" fill="#270A05"/>
<path d="M65.7554 58.414C66.2747 58.1309 66.8885 58.2725 66.983 58.7915C67.0774 59.3578 66.9357 60.0184 66.8413 60.6318C66.2275 60.7733 65.5193 61.4339 65.0943 60.6318C64.7166 59.8768 64.9055 58.9331 65.7554 58.414Z" fill="#270A05"/>
<path d="M57.7288 53.1764C57.9648 53.2236 58.2481 53.5539 58.2953 53.7899C58.3898 54.4505 57.5399 55.2054 57.115 54.8751C56.8789 54.7336 56.8789 54.3089 56.7845 54.0258C56.8789 53.5067 57.115 53.0349 57.7288 53.1764Z" fill="#270A05"/>
<path d="M69.1077 59.8296C69.2493 60.2071 69.1077 60.8677 68.8716 61.1508C67.9745 62.1417 67.5496 61.0564 66.9358 60.6318C67.2663 60.3015 67.5496 59.924 67.9273 59.6881C68.3522 59.4049 68.9188 59.3106 69.1077 59.8296Z" fill="#270A05"/>
<path d="M66.8413 60.7733L66.8885 60.6317C66.8885 60.6317 66.9357 60.6317 66.9357 60.6789C66.9357 60.7261 66.8885 60.7261 66.8413 60.7733Z" fill="#270A05"/>
<path d="M60.7504 56.0075C60.7977 56.5266 60.5616 56.9513 60.0422 57.0456C59.8061 57.0928 59.5228 56.8097 59.1923 56.621C59.4284 56.1963 59.5701 55.7244 59.9006 55.4413C60.4671 55.0638 60.7032 55.5357 60.7504 56.0075Z" fill="#270A05"/>
<path d="M63.1112 57.8949C63.064 58.3668 62.7807 58.8386 62.5919 59.3105C62.403 59.0274 62.0725 58.7915 62.0253 58.5083C61.8836 57.9893 62.0725 57.4703 62.5446 57.14C62.7335 57.4231 63.1584 57.659 63.1112 57.8949Z" fill="#270A05"/>
<path d="M65.0944 54.4032C64.9999 54.6863 64.8583 54.9694 64.7166 55.2526C64.575 55.1582 64.4806 55.0166 64.3389 54.9223C64.1973 54.5448 64.2917 54.2616 64.7166 54.1673C64.8111 54.1201 65.0944 54.356 65.0944 54.4032Z" fill="#270A05"/>
<path d="M52.8655 50.2509L52.8183 49.9206L53.196 50.015L52.8655 50.2509Z" fill="#270A05"/>
<path d="M55.4623 52.1855C55.4623 52.327 55.2735 52.4214 55.1318 52.563C54.9902 52.4686 54.8958 52.327 54.7541 52.2327C54.8485 52.0911 54.9902 51.9967 55.0846 51.8552C55.2263 51.9495 55.4623 52.0911 55.4623 52.1855Z" fill="#270A05"/>
<path d="M79.495 51.1474C78.7868 50.0621 76.9926 50.1565 76.6621 48.7881C76.5205 48.2691 76.9454 47.6085 77.1343 47.0422C78.2674 47.6557 79.4478 48.2219 80.5338 48.9768C80.7698 49.1184 80.7698 49.9206 80.581 50.2981C80.3921 50.6284 79.8727 50.8643 79.495 51.1474Z" fill="#270A05"/>
<path d="M77.2286 46.8535C77.2286 46.9006 77.1814 46.9478 77.1814 46.995H77.1342L77.2286 46.8535Z" fill="#270A05"/>
<path d="M77.1815 46.9007L77.087 46.9951C77.087 46.9951 77.087 46.9951 77.0398 46.9479C77.1342 46.9479 77.1815 46.9007 77.1815 46.9007Z" fill="#270A05"/>
<path d="M74.6318 47.8916C74.443 47.7029 74.443 47.231 74.5374 46.9951C74.7735 46.2873 75.2456 45.7683 76.0011 46.0986C76.426 46.2401 76.7565 46.712 77.087 46.9951C76.6621 47.2782 76.2844 47.5141 75.9067 47.7972C75.4817 48.1275 75.0568 48.3163 74.6318 47.8916Z" fill="#270A05"/>
<path d="M82.3752 51.3361C82.4224 51.1946 82.4224 51.0058 82.5169 50.9586C82.6113 50.9114 82.8474 50.9586 82.9418 51.053C83.2251 51.2889 83.0834 51.5249 82.6585 51.6192C82.6113 51.572 82.5168 51.4305 82.3752 51.3361Z" fill="#270A05"/>
<path d="M71.9405 45.1548C71.8461 45.1548 71.7517 45.0133 71.6572 44.9189C71.7517 44.8245 71.8461 44.7302 71.9405 44.6358C72.035 44.7302 72.1294 44.8245 72.2238 44.9189C72.0822 44.9661 72.035 45.1548 71.9405 45.1548Z" fill="#270A05"/>
<path d="M3.47828 131.977C5.46132 129.665 7.91653 128.013 10.7022 126.833C17.8318 123.672 25.339 122.068 33.1768 122.398C35.3014 122.398 37.3789 122.209 39.4564 122.445C44.5556 122.964 49.466 124.191 53.8571 127.022C61.2227 131.788 61.6476 138.535 54.8958 144.245C52.6295 146.18 50.0326 147.69 47.2469 148.775C36.1985 152.927 24.9613 153.116 13.6296 150.379C10.0412 149.53 6.68892 147.878 3.99765 145.189C0.031559 141.178 -0.157307 136.271 3.47828 131.977ZM47.7663 127.541C43.9419 126.173 39.9758 125.465 35.9152 125.229C29.5412 124.852 23.3087 125.465 17.2179 127.4C15.5654 127.919 13.9129 128.438 12.5909 129.57C12.8741 130.75 13.6768 130.278 14.2434 130.278C16.4153 130.231 18.4928 130.608 20.3342 131.599C23.8753 133.534 27.4165 133.392 31.0048 132.024C36.8123 129.806 42.8087 129.004 48.9467 128.862C48.9467 128.06 48.3801 127.777 47.7663 127.541ZM49.0883 128.862C49.3244 129.004 49.5133 129.098 49.7493 129.24C49.7021 128.579 49.4188 128.721 49.0883 128.862ZM42.5254 146.227L42.2893 145.896L42.1949 146.274L42.5254 146.227ZM39.1259 147.312L39.2675 147.029L38.9842 147.076L39.1259 147.312ZM35.8208 148.067L35.4903 147.925V148.209L35.8208 148.067ZM32.5157 148.397C32.5157 148.397 32.6574 148.209 32.7046 148.114C32.6102 148.067 32.4685 147.973 32.3269 147.925C32.1852 147.973 32.0908 148.02 31.9492 148.067C32.1852 148.161 32.3269 148.303 32.5157 148.397ZM28.6913 148.539C28.7857 148.444 28.8801 148.303 28.9746 148.209C28.8801 148.114 28.7385 147.973 28.6441 147.973C28.5496 147.973 28.4552 148.161 28.3608 148.303C28.5024 148.35 28.5969 148.444 28.6913 148.539ZM25.5279 148.492L25.6695 148.114L25.339 148.161L25.5279 148.492ZM22.0811 148.444C22.5061 148.397 22.6477 148.067 22.3644 147.737C22.1756 147.548 21.7506 147.406 21.5146 147.454C21.3257 147.501 21.2785 147.973 21.184 148.209C21.4673 148.303 21.7978 148.444 22.0811 148.444ZM11.977 145.094L11.7882 144.764L11.6465 145.141L11.977 145.094ZM5.46133 138.677C6.5945 139.998 7.8221 141.225 9.75793 141.036C10.9383 142.358 12.4964 143.018 14.2434 143.065C14.4795 143.065 14.7155 142.782 14.9516 142.641C14.6683 142.499 14.3378 142.358 14.0545 142.169C13.9129 142.074 13.724 141.98 13.6768 141.838C13.3463 141.178 13.2519 140.47 13.6296 139.857C13.9601 139.29 14.5267 139.668 14.9988 139.715C15.6599 139.809 16.3209 139.857 16.9347 139.904C17.0763 140.376 17.2652 140.706 17.2652 141.036C17.4068 144.056 17.3596 144.056 20.3814 145.047L20.2869 145V144.953C20.2869 144.953 20.287 145 20.3342 145C29.5412 146.84 38.1816 145.142 46.4915 141.036C49.7021 139.621 52.6767 137.875 54.5653 134.478C51.5435 132.449 48.4273 131.694 45.0278 132.071C41.7227 132.401 38.4649 133.015 35.3486 134.194C33.224 134.997 31.0521 135.657 28.9274 136.365C26.2833 137.261 23.7809 136.931 21.2785 135.799C19.862 135.138 18.4455 134.43 16.9819 133.864C12.4492 132.071 8.86083 134.053 5.46133 136.79C4.94196 137.309 4.94196 138.111 5.46133 138.677Z" fill="#270A05"/>
<path d="M33.9322 140.706C35.6791 140.848 37.2372 140.187 38.7954 139.621C39.0314 139.857 39.4091 140.093 39.4091 140.376C39.4564 140.848 39.4091 141.65 39.1731 141.744C38.0871 142.169 36.9539 142.405 35.8208 142.688C35.3486 142.829 34.8293 142.971 34.3571 142.971C33.7905 142.924 33.3656 142.546 33.3656 141.98C33.4128 141.508 33.7905 140.706 33.9322 140.706Z" fill="#270A05"/>
<path d="M23.5448 141.367C24.7251 141.319 25.0557 142.027 25.0084 142.971C24.9612 144.245 24.0641 144.056 23.167 144.056C21.9867 144.056 21.7034 143.443 21.6089 142.546C21.7978 141.319 22.6477 141.414 23.5448 141.367Z" fill="#270A05"/>
<path d="M44.3195 138.535C44.3667 138.535 44.5084 138.771 44.5556 138.913C44.6028 139.054 44.65 139.338 44.6028 139.385C43.6113 140.234 42.3837 140.564 41.1089 140.564C41.0617 140.564 41.0145 140.234 40.9672 140.093C41.1561 139.432 40.4479 139.904 41.0617 139.621C42.1476 139.149 43.2808 138.866 44.3195 138.535Z" fill="#270A05"/>
<path d="M28.2663 142.641C28.3135 143.254 28.408 144.056 27.4637 144.009C27.1332 144.009 26.8971 143.348 26.5194 142.971C26.8499 142.546 27.0387 142.027 27.3692 141.838C27.983 141.555 28.2191 142.169 28.2663 142.641Z" fill="#270A05"/>
<path d="M19.7676 141.933C20.0037 142.074 20.3814 142.357 20.3814 142.546C20.4287 143.348 20.3814 144.15 20.3342 144.953C19.9093 144.245 19.4843 143.584 19.1066 142.876C18.8705 142.31 19.3427 141.697 19.7676 141.933Z" fill="#270A05"/>
<path d="M11.6466 139.762C11.741 139.904 11.6466 140.376 11.5049 140.564C11.08 141.084 10.4662 140.989 9.89959 140.989C10.1357 140.612 10.3245 140.234 10.5606 139.857C10.8911 139.243 11.3161 139.338 11.6466 139.762Z" fill="#270A05"/>
<path d="M9.89954 140.942C9.89954 140.989 9.85232 140.989 9.85232 141.036H9.80511C9.7579 140.989 9.75789 140.989 9.71068 140.942C9.75789 140.942 9.85232 140.942 9.89954 140.942Z" fill="#270A05"/>
<path d="M29.7772 141.178C30.0133 141.414 30.2966 141.65 30.391 141.933C30.5799 142.593 30.4855 143.301 29.8717 143.726C29.7772 143.773 29.5884 143.726 29.4939 143.632C28.9273 143.113 28.7857 142.452 29.1162 141.791C29.2106 141.555 29.5412 141.414 29.7772 141.178Z" fill="#270A05"/>
<path d="M31.9019 140.989C32.138 141.083 32.3741 141.461 32.4213 141.744C32.5629 142.216 32.4213 142.688 31.9019 142.924C31.6658 142.735 31.3353 142.641 31.2409 142.405C31.0048 141.791 31.5242 140.8 31.9019 140.989Z" fill="#270A05"/>
<path d="M46.3971 139.526C46.3971 139.385 46.3498 139.055 46.3971 139.055C46.9164 138.913 47.0581 139.102 46.9164 139.574C46.7748 140.045 46.6803 140.564 46.5859 141.084C46.5859 141.084 46.5859 141.084 46.5859 141.036C46.4915 140.564 46.4443 140.045 46.3971 139.526Z" fill="#270A05"/>
<path d="M31.8075 138.111C31.713 138.064 31.6658 137.875 31.5714 137.733C31.6658 137.639 31.713 137.45 31.8547 137.403C31.9963 137.356 32.2324 137.45 32.2796 137.544C32.3268 137.969 32.138 138.205 31.8075 138.111Z" fill="#270A05"/>
<path d="M24.8668 131.363C24.0641 131.269 23.6864 130.797 23.7336 130.042C23.8752 129.051 24.7251 128.579 26.0471 128.674C26.897 128.768 27.1803 129.334 27.1331 130.042C27.0387 131.127 26.2832 131.505 24.8668 131.363Z" fill="#270A05"/>
<path d="M29.8245 129.9C29.3995 130.184 29.069 130.561 28.5969 130.797C28.5496 130.844 28.2191 130.372 28.0303 130.136C28.0303 129.806 27.9831 129.429 28.0775 129.098C28.3608 128.107 29.1634 127.871 30.1078 127.966C30.391 128.013 30.816 128.202 30.9104 128.391C31.2409 129.381 30.3438 129.523 29.8245 129.9Z" fill="#270A05"/>
<path d="M33.8377 128.013L34.121 128.107L33.8849 128.296L33.8377 128.013Z" fill="#270A05"/>
</g>
</svg>
